<?xml version="1.0" encoding="UTF-8"?>
<svg id="Layer_1" xmlns="http://www.w3.org/2000/svg" viewBox="0 0 573.02 461.24">
  <defs>
    <style>
      .cls-1 {
        fill-rule: evenodd;
      }

      .cls-1, .cls-2 {
        fill: #060406;
      }
    </style>
  </defs>
  <path class="cls-1" d="M362.38,84.06v-1.03c0-.28-.2-.48-.72-.48l-39.6-.52c-.4,0-.52.2-.52.52v1.11c0,.48.6.72,2.03.72l38.1.08.2-.32c0-.08.2-.2.52-.08Z"/>
  <path class="cls-1" d="M298.49,86.84v.52c0,1.63-1.03,1.71-3.06.52l-1.31-.72-1.03-1.03h-.72v-.48l4.57-1.55,4.37-.28c1.55-.12,2.26.08,2.26.48v.52h-.72v.52c0,.52-.32,1.43-.83,2.54-.08.4-.91.08-2.11-.83-.91-.72-1.43-.79-1.43-.2ZM322.74,101.79h1.35c.48,0,.71-.2.71-.52v-2.74h.48c.32,0,.72.52,1.11,1.71.24.64-.4,1.63-1.71,2.98l-.79.79h-.52c-.4,0-.64-.2-.64-.72v-1.51ZM316.87,104.53c-.08-.08-.99-2.22-.52-3.02.24-.24,1.23-.71,2.98-1.55,3.34,2.22,1.51,6.4-2.46,4.57ZM297.27,105l.2-.2,1.43-1.15,1.51-1.11,1.55-1.11.48-3.53c.24-2.15.12-3.18-.48-3.06v-1.03h.72l.2.12.08.08.32,2.26c.4,2.54,1.23,4.45,2.74,6-4.37,1.83-7.11,2.74-8.22,2.74h-.52ZM299.41,133.67c-.2-1.51.2-2.42,1.03-2.86.6-1.59-1.03-1.59-4.89,0-.72-.08-.91.52-.72,2.07,1.35-.2,2.15.08,2.26.99h.79v.83h-.79l-2.07.99c-1.63.83-3.02,1.31-4.57,1.31-1.31-2.82-2.94-5.48-4.77-7.91l-2.74-3.46-1.91-11.88c2.3-.91,4.45-2.15,6.4-3.58l-.95.08-.8.32c-1.31.83-2.74,1.35-3.14,1.35h-.2v-.72c1.63-1.11,10.17-4.93,11.88-4.89,2.82-.04-4.69,2.22-6.08,3.14.48.24,2.1-.2,4.77-1.19,4.85-1.95,8.62-3.06,11.28-3.38.91,1.43,1.59,2.54,2.03,3.26l2.03,3.26c.4.72,1.23,1.63,2.22,2.94l2.86,2.22.6,3.77.8,3.77v.99c-4.65,5.2-15.21,9.06-15.33,8.54ZM322.89,136.12v1.03c0,1.23-7.11,4.77-7.55,4.57-.2-.12-.4-.12-.48-.12.99-1.31,1.63-3.02,1.83-5.16.28-2.15-.2-3.97-1.35-5.68l-1.19-1.75c-.52-.79.99-1.71,1.11-1.71h.79c.32,1.11.72,1.91.91,2.54l1.11,2.54.44,2.74c.2,1.43,1.63,1.83,4.05,1.19l.2-.08.12-.12ZM280.33,147.37c-1.31.12-6.2-1.63-6.91-2.82h1.83l3.26,1.51v.52h.79c.2,0,.32.2.2.52h.83v.28ZM286.1,150.93c-.12.2-.32.2-.52.2l-2.74-1.11v-.52h-.72c-.2,0-.48-.32-1.11-.91-.4-.4-.52-.72-.28-1.11,1.11.4,2.3,1.03,3.54,1.71,1.43,1.03,2.14,1.63,1.83,1.75ZM238.35,152.72h.72c.79,0,1.19.64,1.31,1.75,1.91-.4,2.94-.83,3.14-.91l.91-.72c1.51-1.11,16.37,8.34,10.88,8.22-9.57-.2-14.62-2.03-15.45-5.6l-1.03.32c-.08-.2-.08-.4-.2-.52l-.08-.48-.2-.52v-1.55ZM308.63,168.47c-.2.12-.52.12-1.03,0-.32-.08-.8-.99-1.63-2.74l-1.51-3.06c-.32-.68-.91-1.59-1.83-2.94l-2.26-2.42c-.79-.84-2.42-3.97-.68-3.85.48,0,5.56,2.23,5.68,2.42l.99,2.94,1.83,2.54c1.95,2.66.52,7.03.44,7.11ZM238.61,159.96c.52-.4,5.72.79,15.77,3.46l.28,2.03c.12,1.43.12,2.22-.28,2.34l-9.34,2.62c-3.77,1.11-8.02-9.34-6.44-10.45ZM313.18,171.88c-.2-.32.12-1.03.83-2.34,1.31-2.14,1.91-3.65,1.91-4.81v-1.19l.72.08.2.32c.12.12.32.12.64.12l.2,1.51v1.71c0,2.46-4.05,5.72-4.49,4.61ZM267.3,171.28v-.48h1.03c2.62,0-.12,6.67-1.95,8.1-2.14-.28-2.66-1.51-1.71-3.46l.8-1.51.52-1.63,1.31-1.03ZM256.69,181.1c-.72.08-1.23.08-1.51,0l-1.83-.83c-.24-.08-.83-.2-1.95-.32-2.14-.28-3.97-1.51-5.4-3.53-5.68-8.02,17.08-7.23,18.31-5.68-.2,2.74-1.55,5.28-4.09,7.63-1.83,1.71-3.02,2.62-3.53,2.74ZM373.53,183.58c-1.31-1.35.4-9.65,2.22-9.65h.52c.6,0,1.83,1.11,1.83,1.51l-.32,8.42c0,.32-.2.64-.68,1.03-.52.32-1.23.2-2.07-.52l-.68-.6-.83-.2ZM371.29,184.93h-1.03c-.91,0-1.51-6.91,1.51-8.34l-.48,8.34ZM377.61,173.13h-.48v-.83c0-.91-2.03-1.43-3.06.83l-.83-.24c-.08-.68-.28-1.19-.4-1.31-3.73.83-5.68,4.29-5.68,10.37l-.12,3.34c0,.12,0,.24-.2.24h-2.82c-1.43-.12,3.26-15.65,3.54-16.29.32.12.64.24.83.32.91.52,1.43.72,1.63.72l7.59.2c1.15.2.44,2.66,0,2.66ZM333.12,184.44h-4.09c-.48,0-.8-.32-.8-.83l-2.03-.08c-.52,0-.83.2-.72.48l.08.83.44.08c.48.24.72.52.72.72v.83h-.12c0,.2-.4.2-1.11.08l-3.85-1.51-4.09-.91-3.54-1.63c-.12,0-1.75.2-4.89,1.03-2.15.48-3.26.28-3.26-.83.2-7.51,3.57-9.85,9.85-7.11,1.03.4,6.83,3.14,17.4,8.34v.52ZM274.01,186.57h-.52c-.4,0-5.88-4.09-5.16-5.72l.28-.6c.12-.2.2-.4.32-.72.4-.2,1.63,1.31,3.65,4.49.6.91,1.03,1.71,1.43,2.54ZM408.81,161.07l.52-.28.08-.12c.12-.08.2-.08.4-.08,7.23,3.65,6.52,15.33,5.01,16.64-1.15-.32-2.98.72-5.4,3.14-.2,1.03.32,1.95,1.23,2.94.99,1.03.99,2.07,0,2.86-.52,0-.91,0-1.43.12-.72,0-1.51.2-2.42.68-.64.32-1.35.52-2.34.52.52-2.62-5.28-1.43-4.89,1.31-.2-.2-.4-.28-.72-.28,3.06-9.14,2.54-17.08-1.43-23.87l-2.42-3.97c-.32-.52.6-.79,2.54-.99.79.08,1.51,0,2.22-.24,2.22-.6,3.46-.48,3.65.32l3.58.2c.59,1.03,1.11,1.43,1.83,1.11ZM266.01,187.67c-.2-.12-.28-.2-.28-.52v-.99c0-.24,1.11-.64,2.23.2,1.31.99.79,2.03.52,2.03h-.52l-1.95-.72ZM377.19,186.91v2.22c0,.32-.12.52-.52.52l-12.71.83c-.08,0-.2-.12-.2-.32v-2.23c0-.52.32-.72,1.03-.83l8.82-.52c2.46-.08,3.57,0,3.57.32ZM272.41,179.22l1.83.32.72.52c1.71,1.31,3.02.52,3.93-2.54,6.32,4.77,9.85,7.19,10.57,7.11.12-.2.32-.32.52-.52-1.23-1.43-2.14-2.42-2.94-2.94l-3.46-2.66c-6.79-4.96-8.62-10.84-5.28-17.76.6-1.43,1.03-2.34.91-2.66-.4.12-.72,0-.91-.48-.4.2-1.03.91-1.83,2.03-.32.4-.6.8-.91,1.11-3.65-4.49-5.08.32-3.14.6l-.12,1.83c.6-.08.91,0,1.03.52h.72c-.72,1.83-.91,2.86-.64,3.26l1.63,2.34c.2.2,2.34,4.97,2.34,5.09v.48l-3.85-.2c-1.03,1.11-1.55,2.46-1.55,4.05-1.71-1.71-1.91-3.34-.79-4.85,5.48-7.55-4.17-11.48-6.99-6.52-1.23,0-2.86.12-4.89.32,0-.12.08-.32.08-.52.91-1.75,1.35-2.94,1.35-3.85,5.28.28,8.62-2.74,9.73-9.14l.12,1.31c.28,2.82,5.36,2.34,5.36.08v-2.3h-.99c-.12,1.71-2.54,2.54-3.06-.2-.72-.32-1.11,0-1.43.6.2-2.23.52-3.77,1.11-4.57,2.94.52,6,1.83,8.94,3.97,0,.4-.28,1.11-.99,2.23-1.23,1.91-.44,2.03,2.54.08,2.82-2.03,5.76,1.35,5.76,1.83l.2,4.09,2.34,3.22,1.43,3.77c.32.83.83,2.03,1.63,3.65l2.94,2.74c4.57,4.69,1.31,12-1.71,10.69-.44-.2-.91-.32-1.43-.44l-2.23-.48c0,.2,0,.4-.2.6l-.32.12v3.34c-3.06,1.43-6.52,2.03-10.49,1.95-5.05-6.32-7.59-9.85-7.59-10.69v-.52ZM363.65,194.74c-.67-.99-.2-1.71,1.43-2.54.72-.28,2.03-.48,4.17-.48h7.31l.2.2.2.08.12.2c-.32.91-.8,1.63-1.63,2.15-.6.32-3.77.52-9.53.72-1.35,0-2.14-.12-2.26-.32ZM277.95,198.87h-.52c-.4-.6.2-1.11.52-.99v-2.34c0-.12-.52-.72-1.51-1.55-2.86-2.42,1.83-2.82,3.22-.08l.64,1.23c.08.2.4.6.79,1.11-1.23.6-2.03,1.11-2.34,1.63l-.8.99ZM238.85,203.29v-.99l1.35-1.75.8-2.34c0-.08,3.26-4.45,7.23-6.28-.44,3.14-8.86,11.36-9.18,11.36h-.2ZM181.62,203.4l-.28-.12-.2-.32c-.12-.2-.52-.4-1.11-.4l1.59.64v.2ZM367.82,205.09h1.63v.52c0,.2-.12.32-.32.32h-.99c-.2,0-.32-.12-.32-.32v-.52ZM383.52,209.66h-1.63c-1.43,0-1.83-5.09,1.31-4.05.91.28,1.31.72,1.31,1.19l-.2,2.15c-.6.12-.91.4-.79.72ZM405.32,213.55c-.28-3.77.12-6.4,1.11-8.03l1.43-2.03v-.52h.32v1.23l-2.86,9.34ZM291.89,215.07c-.12-1.83,5.68-14.82,12.15-13.39,0,.2.12.28.24.4l-1.03.08c-.2,0-4.17,2.54-4.89,3.18-1.63,1.39-3.26,3.85-4.77,7.19-.32.83-.8,1.75-1.23,2.54h-.48ZM419.75,207.38v1.71l-.52,2.03-.32,2.02c0,.44-.32,1.03-.72,1.83l-1.51.12c-.4.91-.63,1.43-.83,1.43h-.72c-.28,0-.4-.2-.28-.52-2.86.91-4.17-.12-4.09-2.86.12-2.94,1.35-5.76,3.58-8.62l.4.12h.64l1.11,1.51c.91,1.31,2.02,1.63,3.26,1.23ZM309.93,213.96v.99c0,.72-1.03,2.03-1.23,2.03h-1.03c0-.2-.08-.28-.2-.4.44-1.71.83-2.62,1.23-2.62h1.23ZM405.01,217.94c-.32.08-.32-.44-.24-1.55.12-.28.24-.4.44-.52,0,1.35-.12,2.07-.2,2.07ZM363.89,219.09h-.79v-1.19h.28v.72h.52v.48ZM355.56,212.61h-1.11l-1.03,5.4v.2h-.52v-2.27c.12-3.02,1.55-6.67,4.37-10.84,2.07-3.06,3.26-5.28,3.26-6.83v-.99h1.03v.52c5.28-1.75,9.33-2.34,12.39-1.75,1.11.2,1.83.32,2.03.32,0,.08.12.2.32.2l-.12,1.51c-4.25,1.03-6.4,1.43-6.52,1.43v.52c-.08.4.12.52.64.52l5.08.08v1.55c-1.03.48-2.66.8-4.81.67h-5.88c-.52,0-.71-.2-.71-.48v-1.55l3.26-.28c.12,0,.4-.32.6-.91l-.08-.2-.2-.24-.2-.2h-5.6c-.32,0-.52.32-.52.83l-.08,4.25-.32.83c-.12.08-.2.4-.32.72l-.6.28c.91,8.74.99,13.23.6,13.23l-3.73-.12c-.91,0-1.35-.4-1.35-.99l.12-5.4ZM369.75,219.59h-2.82c.08-.2,0-.28-.2-.4.28-.52.6-.8.99-.8l.12-4.89.52-.52c.08-.2.2-.72.2-1.51.08.2.28.28.72.2v7.43c0,.28.2.4.48.28v.2ZM248.07,219.14c-1.91.32-2.62-.2-2.02-1.63l1.63-3.46c.08-.2,2.14-4.85,6.08-14.22,5-11.48,7.63-17.24,8.22-17.24l1.83.08c.91,0-1.83,7.51-8.22,22.88-3.73,8.82-6.2,13.39-7.51,13.59ZM387.96,211.91v.68c0,.52.08,1.43.28,2.86l.52,4.05c-1.83,1.23-11.68,1.55-13.31-.6-.08-2.74.72-9.85,2.46-21.21.72-3.65,1.11-11.8,1.71-24.39.4-8.42,1.83-13.23,4.37-14.54,9.85-.71,15.13,5.48,15.73,18.39.12,3.58-1.11,7.9-3.65,12.91-3.14,6.08-5.56,10.76-6.99,13.9l-1.03-.08-1.11-.83c-6.71-4.97-13.7,7.03-4.65,9.97,1.63.48,3.02.4,4.13-.32.64-.52,1.15-.72,1.55-.8ZM229.51,217.76c.72-1.11,3.57.52,3.57,1.03v.79l-4.09.2c0-.08-.08-.2-.2-.2,0-.28.2-.91.72-1.83ZM238.35,203.81l-.12,1.03-2.54,2.74-2.74,2.74-2.34,2.94c-2.94,3.85-4.65,5.8-4.77,5.88-2.03,1.15-3.46,1.03-4.17-.08,1.03-1.23,1.75-1.83,2.34-2.34l2.54-2.03c.6-.52,1.31-1.31,2.23-2.54l1.63-2.86,2.34-2.22,2.42-2.22c.64-.6,1.63-.91,3.18-1.03ZM206.44,221.47h-4.09c-2.82-.08.91-5.96,1.75-6.59l2.22-1.83,1.63-2.34c.91-1.31,8.14,2.07,5.08,8.14-.52,1.11-1.03,1.71-1.43,2.03-.6.4-2.34.6-5.16.6ZM405.01,222.19c1.03,0,1.03,1.03,0,2.86-1.83.2-3.14.4-4.05.4l-3.97.12c-3.34.2-5.96.48-8.02.91-4.65.91-9.73.99-15.21.28l-3.85-.6c-3.18-.4-8.34-.72-15.65-.91-2.86-.12-4.37-.52-4.69-1.43-.4-1.23.4-2.03,2.46-2.34.28,0,4.13.44,11.56,1.11l3.97.44,3.34,1.31,2.14-.2,2.03-.32,1.75-.79c.2-.12.79.08,1.71.4,2.74,1.23,7.71-.32,7.71-.83h16.96l.32-.2c.12-.08.4-.2.72-.2h.79ZM264.71,222.41c-1.43-.12-2.22-.32-2.54-.52-.4-2.03.32-3.58,2.26-4.57l-2.26-8.66c-.28-1.19-.08-2.1.64-2.74,0-.08.91-.2,2.54-.28h2.11l1.43-1.11c.6-.52,2.03-.24,4.17.91,2.22,1.11,4.57,5.36,7.19,12.99.83,2.22,1.23,3.46,1.35,3.65.91,2.86,1.31,4.37.91,4.69-1.55,1.11-7.03-.2-16.37-3.77l.12-2.54-1.55-.08v2.03ZM307.31,217.19v1.51c0,.99-.2,2.03-.6,3.14l-1.35,2.86c-.28.6-.6,1.51-.91,2.94-1.51-.52-2.42,0-2.54,1.71-.68,0-1.71.32-3.02,1.15-1.03.48-2.14.6-3.38.28-.28,0-.6-.08-.99-.08,0-.72-.2-1.83-.64-3.46-.91-3.85.83-7.03,1.63-6.71l1.95.6c1.23.44,2.54.64,3.97.52.71-2.94,2.02-4.45,4.05-4.45h1.83ZM221.16,228.65h-9.93c-20.62,1.31-30.98,1.75-30.98,1.43v-.91c0-.6-.12-1.23-.32-1.83l-.52-1.83c.64.2.91,0,.83-.52l16.25-.4c.52,0,.83-.2.72-.72l1.51.12c.44,0,.71.59.83,1.71l.52-.12.4-.48c.91-1.23,2.03-1.35,3.34-.32.2.32.72.12,1.31-.6l.32-.2,7.11-.44c.4-.08.91.12,1.63.32.4.2,1.03.12,1.83-.2.2-.12.4-.12.83-.12h8.1c.4,0,2.14-.2,5.08-.72,1.23,2.54,1.23,3.89,0,4.09l-2.94.48c-.72,0-1.75.12-3.06.44l-2.86.79ZM164.54,231.22c-6.79,1.83-9.93.91-9.45-2.54.52-3.26,9.65-3.57,10.96-.72l.72-.12.64-.91c.79-.99,1.91-1.19,3.53-.6,1.23.52,1.75.32,1.75-.52h.72l.08.12c.52.91.72,1.71.72,2.42v2.03c-1.43.52-3.53.64-6.39.72l-3.26.12ZM406.69,234.14h-.48l-.12-.2h-.2l-.79-4.89h.48l1.11,5.09ZM288.91,232.69v1.71c-3.38,1.43-8.22.91-14.42-1.19-6.91-2.54-11.08-3.77-12.51-3.97l-4.37-.72-.08-.32c-.24-.4-.32-.6-.44-.6l-19.78-1.23c-.52,0-.83-.8-.83-2.42s1.11-2.34,3.26-2.34c4.25-.12,8.42.4,12.59,1.51l4.05,1.03c3.89.91,10.49,2.94,19.62,6.2,1.71.6,3.66.99,5.68,1.23.91.08,1.43.08,1.75.28l1.39.83h4.09ZM268.11,234.45h1.71c1.23,0,1.71.24,1.51.72l-.08.64-.4.08c-.32.12-.52.32-.52.64h-1.23l-.99-2.07ZM166.29,235.39h1.63c.4,0,1.39,1.19.68,1.19h-1.83c-.28,0-.48-.08-.48-.48v-.71ZM275.32,237.8v-.79l1.31-.52h.72l2.66.83v.48h-4.69ZM190.81,235.76c-.91-.91-1.43-1.83-1.55-2.66,8.54-1.31,13.23-1.39,14.22-.28,1.11,1.43.72,4.17-1.63,4.77-2.42.72-8.62.08-11.04-1.83ZM251.34,239.57h-7.94c-2.94-.08-6.59-4.45-6.08-9.73.72-.52,1.51-.72,2.23-.72l10.76.12c5.48,0,10.57,3.54,10.37,8.94-2.42.99-5.48,1.39-9.33,1.39ZM226.09,238.56l-17.95,1.23c.08-.4-.12-.64-.44-.91,2.46-2.74,3.77-4.17,3.77-4.29l.72-2.62c.12-.52.32-.84.72-.72l17.28-1.43c.91,1.51,2.42,8.34,1.83,8.34l-5.92.4ZM189.97,240.84c-8.86.99-10.76-7.03-8.54-7.75,1.83-.72,3.57-.08,5.16,1.75l1.75,2.03,1.95,1.51c.48.4,1.11,1.03,2.03,1.83-.52.2-1.23.52-2.34.64ZM281.05,240.44v.52l-29.67,1.83c-15.13.91-20.14-2.26-19.11-20.22.12-.2.32-.44.52-.52.6-.12,1.11,0,1.51.52.83,12.87,1.95,19.59,13.31,18.79,13.7-.83,24.79-1.11,33.45-.91ZM234.23,241.55h-1.03c-.2,0-11.16.6-32.81,2.03-17.44.99-17.88.72-20.18-1.31-2.74-2.34-4.37-7.94-4.57-16.68.28-.4.67-.6,1.11-.6.71,1.83,1.11,3.26,1.19,4.17l.64,4.45c.79,6.12,4.85,9.06,12.39,8.74,2.42-.08,10.25-.6,23.04-1.43,12.91-.91,19.62-.99,20.22-.08v.72ZM159.55,243.54l1.03-.72.6-.91c2.54-3.46,3.85.91.4,3.34-.59.52-1.31.52-2.02.12-.52-.32-.6-.71-.28-1.11.2-.32.28-.52.28-.71ZM336.89,174.85h.72c.2,0,.6-.2,1.03-.83,0-.48,0-.79-.2-.99l-.64-.83c-.2-.2-.28-.48-.28-.99.28-.32.48-.52.4-.91,3.53.28,5.68-.44,6.28-2.03h3.85c.12-.24.32-.32.52-.52v-.83c-3.65-.91-5.48-1.83-5.48-2.74l-.52-8.42c-.28-5.68-3.14-8.74-8.5-9.26-.91.83-1.15,1.43-.83,1.83l2.74,2.86,2.66,2.62.28,4.09,1.23,3.73c.32.83.72,2.15,1.11,3.77-.2.52-6.91-1.03-20.22-4.37-4.77-1.23-7.31-2.03-7.71-2.34l-2.94-2.54c-.64-.52-11.68-6.79-14.94-5.36-.91.4-2.03.99-3.46,1.91l-.2-.08-.52-.12-3.06-2.62c-.91-.83-15.85-9.85-26.61-10.17v1.03h.83c2.54.08,4.89.99,7.11,2.74-2.34.08-3.97-.2-4.77-.72l-2.15-1.35c-.83-.4-2.15-.2-4.05.84-.32-1.31,0-2.03.79-2.03v-.52c-1.95-2.34-3.53-3.65-4.69-3.77l-3.14-.2-.71-.72c-1.51-1.51-3.93-1.39-7.51.44l-.4,1.63h-1.03v-1.55c0-.2-.08-.2-.2-.32-8.1,4.17-11.16,7.03-9.26,8.34.91.64,1.55.32,1.75-.99l.99.08v2.54h-1.51c-.2.6-.6.84-1.03.6.52,1.95,1.03,3.18,1.55,3.77,0,.12-.2.2-.4.2-.44-.52-.91-.72-1.35-.6-7.71,7.51,4.37,27.21,16.96,36.07v.48c-2.82,1.03-4.37,1.63-4.57,1.63l-27.73-1.71c-3.73-.2-8.02,5.8-12.79,17.95-2.03,5.28-3.34,8.98-3.85,10.89l-.52-.08c-.08-.12-1.23-.91-3.14-2.74l-2.86-2.86c-.91-.91-3.73-1.11-8.62-.4-2.22.28-3.77.4-4.37.2-.83-.32-1.43-.52-1.75-.4l2.07-.12c2.3-.2,2.5-1.43.67-3.58.91.12,1.43-.08,1.55-.79.71.32,1.91,1.03,3.46,1.95,1.71,1.11,2.62,1.31,2.62.6-3.14-9.26-17.68-6.79-17.24,1.43.2.28.91.6,2.03.91l-.72.08c-.72.12-1.63.83-2.94,2.26-.32.8-.2,1.63.48,2.42.64.8.91,1.23,1.03,1.23h1.31v-2.03l9.65-.44,2.46-.6c.4-.12,2.03-.32,5.16-.72,3.66,5.4,5.88,8.94,6.59,10.76-.4.2-.79.32-1.31.32l-13.23-.64c-1.31-.08-2.3-.28-3.02-.79l-1.75-2.54c-.4-.6-.99-1.43-1.83-2.62h-.72c0,.2-.08.2-.28.28-.71,1.63-.44,3.38.79,5.4.52.91.83,1.43.71,1.51-.32.4-1.83.6-4.57.83-3.97-7.43-6.71-11.92-8.34-13.23-3.93-3.46-5.36-3.97-18.87-3.14-.91.08-5.01.32-12.12.4-4.05.2-6.59.72-7.71,1.51-.52.44-2.15,2.54-4.69,6.51-1.71,2.66-2.62,5.09-2.62,7.23,4.57.28,7.63-1.23,9.14-4.49.8.32,1.23.64,1.31.83.2-.2.52-.2.71-.2.72-1.63,3.38,0,3.38.4l.08,5.36c0,.32.2.52.52.52l.99.12c.84-2.46,1.75-4.09,2.78-5.08.48,2.62.67,4.05.6,4.25-.52,3.06-.72,4.57-.72,4.89,1.11.32-.2,2.74-.6,2.74h-.52c-.12-2.34-1.75-2.42-4.69-.4-.52.28-.99.28-1.71,0l-.2-.44h-6.63l-2.74-.99c-.4-.2-.99-.2-1.91,0-1.95,2.62-2.74,5.68-2.74,9.26.28,9.85,2.54,17.04,6.99,21.61,2.22,2.34,8.34,3.57,18.19,3.85,10.45.24,16.96,0,19.39-.48l3.77-.72,132.28-.04c.08,0-2.26-2.07-5.28-7.15l-120.8.08c-.12-1.55,0-2.74.4-3.46l1.75-3.14c1.63-3.06,1.91-5.2.91-6.2l-1.23.08c-4.17,12-8.42,17.48-12.79,16.45-3.65-.8-6.39-3.14-8.22-7.11-3.38-7.39-4.81-12.39-4.29-14.82l.83-3.54c.08-.83.2-2.15.2-3.89-.91-.08-1.43-.48-1.55-1.19-.91.4-1.39.72-1.71.99-.12-1.43-.4-2.34-.72-2.94l-1.51-2.42c-.44-.64-.64-1.55-.52-2.94,1.11-1.95,1.95-2.86,2.54-2.86h.72c0,.52.08,1.03.52,1.51l1.31-.2c.28-.6.6-.79.99-.79h.2v3.26c.24.08.44.2.63.2,4.05-5.92,7.31-8.94,9.85-9.26,5.56-.6,11.36,6.4,11.16,8.74-.6.52-1.71.8-3.46.72-.91-.12-1.83-.2-2.94-.4-4.25-1.15-7.11.48-8.74,4.57l-.4,3.65-.32.48c-1.19,1.55.2,11.92,2.34,14.46,3.97,4.45,9.06,1.91,9.97-.44l1.63-3.65,3.02-2.11c1.83-1.43,2.86-2.34,2.86-2.86v-3.53l1.23.08c1.91,7.23,5.36,11.36,10.33,12.2,4.17.6,15.14.2,32.93-1.43,3.54-.2,6.2-.4,8.02-.52l4.05-.08c.91-.12,2.34-.2,4.09-.32l3.93-.71,1.63.63c1.95.68,3.06.99,3.46.99l47.03-1.91c3.97,13.31,9.53,19.9,16.64,19.98l25.1.12c2.23,0,4.17-.83,6-2.42l2.94-2.07c0,.12-.32.52-.99,1.35-1.83,2.3-1.71,3.81-.6,3.81l143.28.04v-7.11l-140.22-.08.76-3.06c0-.24-.2-.44-.4-.52-.32,0-1.23.28-2.94.99-8.82,3.57-17.56-9.45-16.45-24.99-.44-.4-.83-.6-1.23-.91-1.23-.72-1.83-1.43-1.83-2.03h-1.51c.28-.91-1.43-1.95-2.14-.2-.6-.4-.91-.83-.91-1.31l.08-1.55,1.75-5.56c.72-.44,1.63-.32,2.94.28.52.44,1.03.64,1.63.83l.52,1.51h.79c1.55-.91,2.46-1.83,2.74-2.74l1.35-3.54c.2-.83.79-1.83,1.71-3.06.4-.12,1.63-.52,3.85-1.43,2.03-.91,5.4-.08,10.05,2.22l.2-.08.24-.2.2-.2v-.52c.08-.52,0-.84-.2-1.03l-.52-.52h.99c2.74,3.26,3.97,5.52,3.38,6.51-1.03-1.71-2.03-2.34-3.14-1.91.68,1.39,1.19,2.82,1.71,4.25l1.11,4.45,1.31,3.97-.28,4.05c0,.91-.12,2.26-.2,4.09l-.12,4.05-.72,3.85v2.74h.72c1.95-3.53,2.94-7.63,2.94-11.96v-4.17c0-.64,22.24-.91,23.36.91l2.03,3.34c1.23,1.83,6.43,2.94,15.57,3.14,4.65.2,10.05.32,16.13.64,5.01,7.83,7.82,11.88,8.46,12.39,4.25,3.02,32.49,2.23,35.95,1.31,6-1.95,9.53-5.88,10.76-12-1.03.64-2.34,1.43-3.85,2.54-2.74,1.83-5.8,2.03-9.45.4-1.63-.6-2.86-1.31-3.46-2.03-.12-.08-.52-1.31-1.51-3.53-2.27-5.28-3.26-8.02-2.98-8.34.44-.32.24-1.83-.48-4.37-.52-1.83-.52-3.54,0-5.09l.48-1.51c-.28.08-.48,0-.67-.2l-.12-.32h-1.03l-.08.12-.12.2-.08.08c-.2-.28-.32-.4-.44-.6l-.2-.52c0-.2-.2-.32-.28-.52-.91-.2-1.43,0-1.55.72h-.91l-.91-.08-.48.48h-.52l-.2-.2c-.12-.08-.2-.2-.32-.28-.12-.12-.12-.2-.2-.2-.32-5.09.79-8.02,3.65-8.86.08.12.32.12.52.12.2,1.19.6,1.83,1.39,1.91.12-.08.24-.2.32-.28v-.24h.83v.83c0,.2.2.52.72.99.28-.2.48-.2.8-.2,2.62-6.48,5.36-10.57,8.14-12.19,3.22-1.83,5.88-2.11,7.79-.6l1.35.91h.99c-.08-.4,0-.72.2-.91-1.71-3.14-4.13-5.16-6.99-6v-.52c.52-.28.99-.48,1.51-.48l22.88-.12c.91-.08,1.63-.32,2.03-.91v-.99c-.72,0-1.11-.32-1.23-.91l-27.93-.83c-1.03-.2-1.75,1.03-2.34,3.46l-17.99,1.11c-.99.12-2.94,0-5.88-.4-2.54-.4-4.77,0-6.59,1.23l-.72.48c-.32-1.19.4-2.11,2.03-2.82.52-.64-.2-1.43-.52-1.23,0-.4.2-2.34.72-5.8,2.66-15.85-5.68-24.67-11.16-25.46-1.31-.32-22.76.08-24.79,1.19-2.34,1.23-3.65,3.38-3.97,6.4-6.79,1.23-10.25,1.75-10.37,1.43-.08-.2.24-1.83.83-4.77,2.34-9.77.4-13.7-5.6-12-.6-1.11-1.11-2.22-1.63-3.34-3.53-7.63-8.74-13.03-15.53-16.25-2.14-1.03-5.88-2.15-11.08-3.38-.4-1.11-.6-2.42-.72-3.65-.91-7.39-1.91-12.47-2.82-15.22-4.69-12.83-17.36-25.22-30.47-24.91-30.91.72-34.12,30.59-27.25,43.18h1.03c-.12-.32,0-.6.2-1.03,2.22-.2,5.88,6,6.12,7.55.2,1.31-.71,2.3-2.78,3.02-.28,1.75,1.15,4.49,4.49,8.14,1.23.4,1.83.2,1.71-.83h.52l.2.24.2.2.12.08.91,3.14c.6,2.46,3.85,3.58,9.53,3.46l3.89-.08,3.22-2.03,3.65-1.23c6.44-2.22,12.12-5.16,17.08-8.54,15.65-11.08,36.39-8.02,38.09,17.68.91,11.6-.79,19.62-4.97,24.27-6.51,7.11-17.48,6-20.14,3.18-.08-.32,0-.72.12-1.03,1.23-.2,1.83-.4,2.03-.72-.08-.4-1.23-1.51-3.34-3.34,0-.2,0-.32.2-.52.4-.83.6-1.43.6-2.03Z"/>
  <path class="cls-1" d="M331.07,90.5v.52c0,.32-.08.4-.52.32-.28.48-.08,1.11.72,1.91l.32.4,7.9.12c5.01,0,8.66-.4,11-1.43.28-.99,0-1.51-1.03-1.63l-17.88-.4c-.32,0-.52.12-.52.2Z"/>
  <path class="cls-1" d="M297.27,117.86h.2l1.03-.52h.28l.83,1.31c.8,1.23,1.83,1.51,3.26,1.11.28-.52.48-.91.48-1.19l.2-1.35.83-.91c.32-.28.12-1.51-.2-1.51h-3.38c-.48,0-3.53,1.23-3.53,2.23v.83Z"/>
  <path class="cls-1" d="M290.42,120.37h-1.83c-.99,0-1.71.52-2.23,1.51-.4.71,1.91,5.72,3.85,2.94.32-.4.72-4.45.2-4.45Z"/>
  <path class="cls-1" d="M293.9,126.24v1.19h.99v-.48c0-.52-.2-.71-.48-.71h-.52Z"/>
  <path class="cls-1" d="M355.88,129.38c-.4,0-.6.32-.52.83l.12,1.51.4.2c.32.2.32.52.2.79l31.5-.79c.99-.12,1.51-.32,1.51-.8v-1.03c0-.32-.12-.52-.52-.52l-32.69-.2Z"/>
  <path class="cls-1" d="M436.42,157.67c.52.6,7.82.8,21.73.67,6.32,0,10.29-.4,12-.99.4-1.11-2.42-1.75-8.74-1.83l-3.85-.2h-3.97l-3.85-.12-3.85-.08-3.85-.32c-2.15-.12-3.66,0-4.37.32-1.75.72-2.14,1.63-1.23,2.54Z"/>
  <path class="cls-1" d="M269.58,163.07h.99c.12,0,.2-.12.2-.24v-1.51c0-.4-.08-.52-.48-.52h-.52c-.12,0-.2.12-.2.2v2.07Z"/>
  <path class="cls-1" d="M250.09,166.87h.79l.8-.83v-1.31l-.2-.12-.28-.2-.2-.2c-.63.32-.91,1.11-.91,2.66Z"/>
  <path class="cls-1" d="M248.32,164.25c.12-.08.2-.28.2-.48v-1.03h-.52c-.2,0-.28-.2-.2-.52h-.79c-.6,0-2.03,2.86-2.03,3.38.08,2.03,2.74,2.74,3.46,2.03.91-.91,0-2.22-1.11-2.46-.12-.2.2-.48.99-.91Z"/>
  <path class="cls-1" d="M424.25,159.91c8.22-4.65,11.08,12.31,9.45,13.23l-.91.48-.91.44-.72.8h-1.03c-1.19,0-2.1-1.71-2.94-5.28l-.79-3.34c-.12-.72-.52-1.83-1.03-3.26l-1.11-3.06ZM427.78,154.5h-6.4c-2.86-.08-4.77.32-5.6,1.23l.12.52c3.65,1.39,11.24,9.34,9.41,19.9-.08.52-2.94,7.51-3.14,7.83l-2.54,3.02c-.08.24-.08.64,0,1.35.52.71,8.22,1.31,12.19-2.15,3.26-2.86,4.89-7.63,4.97-14.42v-3.97l-1.51-3.97c-2.42-6.2-4.89-9.34-7.51-9.34Z"/>
  <path class="cls-1" d="M346.65,173.05h-1.19c-.52,0-.91,1.59-.32,1.59h1.31c.2,0,.44-.28.71-.91l-.08-.2-.2-.28-.24-.2Z"/>
  <path class="cls-1" d="M279.14,186.6l.72.28c3.26,1.35,4.77.91,4.77-1.11v-2.23c0-2.54-6.28-2.46-5.48.52l.2.99c.12.4,0,.91-.2,1.55Z"/>
  <path class="cls-1" d="M480.28,197.71v-.52c0-.2.12-.32.52-.2.6-1.35,0-2.03-1.83-2.03h-11.68c-.32,0-.52.08-.52.48v2.03c0,.52.4.72.99.72h11.2l.4-.2c.12,0,.4-.08.91-.28Z"/>
  <path class="cls-1" d="M303.59,224.03h-.99l-.2.2c-.72.72.28,2.07.99,1.83.52-.08.72-.28.72-.48v-1.03c0-.32-.2-.52-.52-.52Z"/>
  <path class="cls-1" d="M452.15,209.29h-1.03c-3.06,0-7.63,19.39,2.74,22.52.12-.08.2-.2.4-.2-.2-1.83.12-3.06.72-3.73l2.54-2.98c1.11-1.19,1.31-10.05-.08-10.05h-1.83c-.52.91-.72,1.55-.72,1.75l.2,5.56c.08.72-1.55,2.98-3.58,2.34-.72-.99-2.1-6.79.72-9.34,1.43-1.23,1.43-3.14-.08-5.88Z"/>
  <path class="cls-1" d="M335.3,219.65c-.91-.91-3.93,2.11-5.05,6.4-1.03,3.85-1.03,5.8,0,5.8h.99c1.11-2.86,1.75-4.49,1.95-4.69l1.71-1.95c.52-.4,1.23-4.77.4-5.56Z"/>
  <path class="cls-1" d="M462.57,201.08c.64,2.14,1.03,3.77,1.31,4.89l.95,4.89c1.39,6.48,1.51,13.07,0,19.78-.52,2.66-.83,3.97-.72,3.97h.8c7.51-11.16,2.34-33.53-1.31-33.53h-1.03Z"/>
  <path class="cls-1" d="M337.88,226.02h-1.19c.2.6-.12.91-.83.99.52,5.8.2,8.66-1.11,8.66h-1.23c-.4,0-.79-.64-1.31-1.75-5.28-2.15,0,11.16,3.45,10.17.72-.2,1.03-.52,1.03-1.03l.4-4.17,2.15-3.53c1.39-2.42,1.51-4.89.2-7.23-.72-1.39-1.23-2.11-1.55-2.11Z"/>
  <path class="cls-1" d="M90.93,256.45l.08,7.15h32.18c-4.13-2.1-5.05-3.69-6.08-7.15h-26.18Z"/>
  <rect class="cls-2" x="189.22" y="301.28" width="4.97" height="29.28"/>
  <rect class="cls-2" x="189.22" y="290.13" width="4.97" height="5.71"/>
  <path class="cls-1" d="M201.77,330.56h4.97v-15.19c0-2.7.27-4.72.82-6.12.51-1.4,1.4-2.5,2.57-3.25,1.2-.72,2.47-1.1,3.87-1.1,1.85,0,3.19.55,3.98,1.68.82,1.09,1.23,2.74,1.23,4.96v19.02h4.97v-17.03c0-2.98.69-5.2,2.02-6.57,1.37-1.37,3.08-2.05,5.14-2.05,1.13,0,2.12.27,2.98.82.86.51,1.44,1.23,1.78,2.09.31.89.44,2.29.44,4.27v18.47h4.97v-20.11c0-3.32-.79-5.81-2.37-7.42-1.58-1.61-3.8-2.43-6.72-2.43-3.7,0-6.72,1.71-9.05,5.13-.58-1.61-1.54-2.84-2.91-3.76-1.4-.92-3.19-1.37-5.38-1.37-1.95,0-3.7.44-5.21,1.3-1.51.89-2.74,2.05-3.67,3.49v-4.1h-4.46v29.28Z"/>
  <path class="cls-1" d="M265.08,330.56h5.18v-34.41l11.69,34.41h4.8l11.79-33.82v33.82h5.14v-40.43h-7.2l-9.7,28.11c-.93,2.84-1.65,5.03-2.12,6.46-.41-1.3-1.03-3.28-1.92-5.95l-9.6-28.63h-8.06v40.43Z"/>
  <path class="cls-1" d="M310.53,317.56h0c.07,2.7.82,5.13,2.23,7.25,1.41,2.16,3.32,3.73,5.83,4.82,2.47,1.06,5.52,1.61,9.19,1.61,2.91,0,5.52-.55,7.81-1.61s4.08-2.53,5.31-4.45c1.23-1.88,1.85-3.9,1.85-6.05s-.55-4.07-1.68-5.75-2.88-3.04-5.24-4.14c-1.61-.72-4.59-1.57-8.95-2.57-4.35-.96-7.06-1.95-8.09-2.87s-1.58-2.12-1.58-3.59c0-1.68.75-3.11,2.26-4.27,1.44-1.2,3.84-1.78,7.06-1.78s5.45.65,7.06,1.95c1.58,1.3,2.54,3.22,2.81,5.78l5.11-.38c-.07-2.36-.72-4.48-1.99-6.36-1.23-1.88-2.98-3.32-5.24-4.27-2.3-.96-4.97-1.44-7.95-1.44-2.74,0-5.21.48-7.44,1.37-2.26.92-3.94,2.29-5.07,4.03-1.16,1.78-1.75,3.69-1.75,5.75,0,1.85.45,3.52,1.44,4.99.93,1.54,2.37,2.77,4.28,3.8,1.51.79,4.11,1.61,7.81,2.5,3.74.92,6.14,1.57,7.23,1.98,1.68.65,2.88,1.44,3.63,2.36.75.99,1.1,2.09,1.1,3.35s-.38,2.39-1.13,3.45c-.75,1.06-1.92,1.88-3.5,2.5-1.58.62-3.36.89-5.42.89-2.3,0-4.35-.41-6.2-1.2-1.85-.79-3.22-1.85-4.08-3.15-.89-1.3-1.44-2.94-1.68-4.96l-5.04.44Z"/>
  <path class="cls-1" d="M378.98,316.37h0c-.75,3.39-2.16,5.95-4.25,7.7-2.06,1.74-4.59,2.6-7.61,2.6-2.47,0-4.76-.65-6.89-1.91-2.12-1.27-3.67-3.18-4.66-5.75-1.03-2.56-1.51-5.54-1.51-8.99,0-2.67.41-5.27,1.27-7.76.86-2.5,2.33-4.48,4.42-5.98,2.06-1.47,4.66-2.22,7.78-2.22,2.71,0,4.94.65,6.75,2.02,1.78,1.33,3.12,3.45,4.08,6.39l5.28-1.23c-1.1-3.73-3.02-6.6-5.79-8.69-2.74-2.05-6.14-3.08-10.22-3.08-3.56,0-6.85.82-9.8,2.43-2.98,1.64-5.28,4.04-6.86,7.15-1.65,3.15-2.43,6.81-2.43,11.01,0,3.86.72,7.46,2.16,10.84,1.41,3.35,3.5,5.92,6.24,7.66,2.71,1.81,6.27,2.7,10.63,2.7s7.78-1.16,10.69-3.49c2.91-2.29,4.94-5.64,6.07-10.02l-5.35-1.37Z"/>
  <polygon class="cls-1" points="129.75 389.97 155.05 389.97 155.05 385.18 135.1 385.18 135.1 349.54 129.75 349.54 129.75 389.97"/>
  <path class="cls-1" d="M179.52,375.26v1.81c0,2.19-.27,3.83-.79,4.96-.69,1.47-1.82,2.6-3.29,3.42-1.51.85-3.22,1.26-5.11,1.26s-3.39-.44-4.39-1.3c-1.03-.89-1.54-1.98-1.54-3.32,0-.85.24-1.64.69-2.36.48-.72,1.13-1.27,1.99-1.61.86-.38,2.3-.68,4.32-.99,3.63-.51,6.34-1.13,8.12-1.88ZM179.93,386.34h0c.14,1.37.48,2.6.99,3.63h5.21c-.65-1.16-1.06-2.29-1.27-3.56-.21-1.2-.31-4.1-.31-8.72v-6.6c0-2.22-.1-3.73-.27-4.58-.27-1.37-.79-2.5-1.54-3.39-.72-.89-1.85-1.64-3.43-2.22-1.58-.58-3.6-.89-6.1-.89s-4.76.34-6.68,1.03c-1.88.68-3.36,1.68-4.39,2.97-1.03,1.27-1.75,2.98-2.16,5.03l4.83.65c.55-2.05,1.37-3.52,2.5-4.34,1.1-.79,2.81-1.2,5.18-1.2,2.5,0,4.39.55,5.66,1.68.92.82,1.4,2.26,1.4,4.27,0,.17,0,.58-.03,1.27-1.92.68-4.87,1.26-8.88,1.71-1.95.27-3.43.51-4.39.75-1.34.38-2.54.92-3.57,1.64-1.1.72-1.95,1.64-2.57,2.84-.68,1.16-.99,2.5-.99,3.93,0,2.46.86,4.45,2.57,6.02,1.75,1.54,4.22,2.36,7.44,2.36,1.95,0,3.77-.34,5.48-.96,1.71-.65,3.46-1.74,5.31-3.32Z"/>
  <path class="cls-1" d="M192.27,389.97h4.97v-16.01c0-3.73.75-6.29,2.3-7.63,1.54-1.33,3.36-2.02,5.48-2.02,1.34,0,2.5.31,3.5.89.96.61,1.64,1.4,2.02,2.39.38,1.03.58,2.53.58,4.55v17.82h4.97v-18.02c0-2.29-.07-3.9-.27-4.82-.31-1.4-.79-2.63-1.54-3.66s-1.85-1.88-3.32-2.5c-1.47-.65-3.12-.96-4.87-.96-4.08,0-7.2,1.61-9.36,4.82v-4.14h-4.46v29.28Z"/>
  <path class="cls-1" d="M227.03,375.33h0c0-3.86.75-6.7,2.26-8.52,1.44-1.78,3.29-2.67,5.52-2.67s4.18.92,5.72,2.81c1.54,1.88,2.3,4.82,2.3,8.82,0,3.63-.72,6.33-2.26,8.07-1.51,1.81-3.36,2.7-5.55,2.7s-4.01-.96-5.59-2.8c-1.58-1.85-2.4-4.65-2.4-8.41ZM242.76,389.97h4.59v-40.42h-4.94v14.5c-.86-1.2-1.99-2.19-3.36-2.91-1.37-.75-2.95-1.13-4.73-1.13-2.4,0-4.59.65-6.55,1.91-1.95,1.27-3.43,3.08-4.39,5.47s-1.47,5.03-1.47,7.94.58,5.68,1.65,7.97c1.06,2.29,2.6,4.11,4.56,5.37,1.95,1.3,4.08,1.95,6.44,1.95,3.6,0,6.34-1.47,8.19-4.34v3.69Z"/>
  <polygon class="cls-1" points="271.69 389.97 277.04 389.97 277.04 370.92 298.05 370.92 298.05 389.97 303.43 389.97 303.43 349.54 298.05 349.54 298.05 366.13 277.04 366.13 277.04 349.54 271.69 349.54 271.69 389.97"/>
  <path class="cls-1" d="M330.44,375.26v1.81c0,2.19-.27,3.83-.79,4.96-.69,1.47-1.82,2.6-3.29,3.42-1.51.85-3.22,1.26-5.11,1.26s-3.39-.44-4.39-1.3c-1.03-.89-1.54-1.98-1.54-3.32,0-.85.24-1.64.69-2.36.48-.72,1.13-1.27,1.99-1.61.86-.38,2.3-.68,4.32-.99,3.63-.51,6.34-1.13,8.12-1.88ZM330.85,386.34h0c.14,1.37.48,2.6.99,3.63h5.21c-.65-1.16-1.06-2.29-1.27-3.56-.21-1.2-.31-4.1-.31-8.72v-6.6c0-2.22-.1-3.73-.27-4.58-.27-1.37-.79-2.5-1.54-3.39-.72-.89-1.85-1.64-3.43-2.22-1.58-.58-3.6-.89-6.1-.89s-4.76.34-6.68,1.03c-1.89.68-3.36,1.68-4.39,2.97-1.03,1.27-1.75,2.98-2.16,5.03l4.83.65c.55-2.05,1.37-3.52,2.5-4.34,1.1-.79,2.81-1.2,5.18-1.2,2.5,0,4.39.55,5.65,1.68.93.82,1.41,2.26,1.41,4.27,0,.17,0,.58-.03,1.27-1.92.68-4.87,1.26-8.88,1.71-1.95.27-3.43.51-4.39.75-1.34.38-2.54.92-3.56,1.64-1.1.72-1.95,1.64-2.57,2.84-.69,1.16-1,2.5-1,3.93,0,2.46.86,4.45,2.57,6.02,1.75,1.54,4.22,2.36,7.44,2.36,1.95,0,3.77-.34,5.49-.96,1.71-.65,3.46-1.74,5.31-3.32Z"/>
  <path class="cls-1" d="M346.48,375.33h0c0-3.86.75-6.7,2.26-8.52,1.44-1.78,3.29-2.67,5.52-2.67s4.18.92,5.72,2.81c1.54,1.88,2.3,4.82,2.3,8.82,0,3.63-.72,6.33-2.26,8.07-1.51,1.81-3.36,2.7-5.55,2.7s-4.01-.96-5.59-2.8c-1.58-1.85-2.4-4.65-2.4-8.41ZM362.22,389.97h4.59v-40.42h-4.94v14.5c-.86-1.2-1.99-2.19-3.36-2.91-1.37-.75-2.95-1.13-4.73-1.13-2.4,0-4.59.65-6.55,1.91-1.95,1.27-3.43,3.08-4.39,5.47-.96,2.39-1.47,5.03-1.47,7.94s.58,5.68,1.65,7.97c1.06,2.29,2.6,4.11,4.56,5.37,1.95,1.3,4.08,1.95,6.44,1.95,3.6,0,6.34-1.47,8.19-4.34v3.69Z"/>
  <path class="cls-1" d="M378.4,372.49h0c.17-2.53,1.03-4.58,2.61-6.09,1.54-1.54,3.46-2.29,5.76-2.29,2.5,0,4.56.96,6.13,2.87,1.03,1.23,1.68,3.08,1.89,5.51h-16.39ZM394.75,380.53h0c-.75,2.09-1.78,3.59-3.09,4.58-1.3.96-2.85,1.44-4.66,1.44-2.47,0-4.49-.85-6.14-2.56-1.61-1.71-2.54-4.17-2.74-7.39h21.87c.03-.58.03-1.03.03-1.33,0-4.82-1.23-8.58-3.74-11.25-2.47-2.67-5.69-4-9.6-4s-7.34,1.37-9.87,4.1c-2.57,2.7-3.84,6.53-3.84,11.46s1.27,8.45,3.8,11.08c2.5,2.63,5.9,3.97,10.18,3.97,3.39,0,6.2-.82,8.4-2.5,2.19-1.64,3.7-3.97,4.49-6.98l-5.11-.62Z"/>
  <rect class="cls-2" x="406.02" y="349.54" width="4.97" height="40.42"/>
  <path class="cls-1" d="M418.71,389.97h4.97v-16.01c0-3.73.75-6.29,2.3-7.63,1.54-1.33,3.36-2.02,5.48-2.02,1.34,0,2.5.31,3.5.89.96.61,1.65,1.4,2.02,2.39.38,1.03.58,2.53.58,4.55v17.82h4.97v-18.02c0-2.29-.07-3.9-.27-4.82-.31-1.4-.79-2.63-1.54-3.66s-1.85-1.88-3.33-2.5c-1.47-.65-3.12-.96-4.87-.96-4.08,0-7.2,1.61-9.36,4.82v-4.14h-4.46v29.28Z"/>
  <path class="cls-1" d="M156.21,431.89h0c.17-2.53,1.03-4.58,2.6-6.09,1.54-1.54,3.46-2.29,5.76-2.29,2.5,0,4.56.96,6.14,2.87,1.03,1.23,1.68,3.08,1.89,5.51h-16.38ZM172.56,439.93h0c-.75,2.09-1.78,3.59-3.09,4.58-1.3.96-2.85,1.44-4.66,1.44-2.47,0-4.49-.86-6.14-2.57-1.61-1.71-2.54-4.17-2.74-7.39h21.87c.03-.58.03-1.03.03-1.33,0-4.82-1.23-8.58-3.74-11.25-2.47-2.67-5.69-4-9.6-4s-7.34,1.37-9.87,4.1c-2.57,2.7-3.84,6.53-3.84,11.46s1.27,8.45,3.81,11.08c2.5,2.63,5.9,3.97,10.18,3.97,3.39,0,6.2-.82,8.4-2.5,2.19-1.64,3.7-3.97,4.49-6.98l-5.11-.62Z"/>
  <rect class="cls-2" x="185.35" y="443.69" width="5.66" height="5.68"/>
  <path class="cls-1" d="M211.84,449.37h5.49l15.87-40.42h-5.48l-10.94,29.34c-.82,2.22-1.54,4.41-2.19,6.63-.55-2.09-1.27-4.27-2.13-6.63l-10.52-29.34h-5.79l15.7,40.42Z"/>
  <rect class="cls-2" x="233.61" y="443.69" width="5.66" height="5.68"/>
  <path class="cls-1" d="M273.1,461.24h3.56c-5.48-8.82-8.26-17.65-8.26-26.51,0-3.45.38-6.91,1.2-10.33.62-2.77,1.51-5.4,2.64-7.97.72-1.61,2.19-4.34,4.42-8.17h-3.56c-3.46,4.62-6.03,9.23-7.68,13.89-1.41,4-2.13,8.21-2.13,12.59,0,4.96.93,9.75,2.85,14.36,1.89,4.65,4.22,8.69,6.96,12.14Z"/>
  <path class="cls-1" d="M288.42,444.58v-30.85h8.5c3.15,0,5.48.27,6.92.82,1.99.75,3.67,2.29,5.07,4.55,1.41,2.29,2.09,5.54,2.09,9.75,0,3.04-.38,5.64-1.06,7.76-.72,2.15-1.71,3.86-2.98,5.13-.93.92-2.09,1.61-3.6,2.09-1.54.51-3.63.75-6.31.75h-8.64ZM283.07,449.37h14.6c2.43,0,4.59-.24,6.51-.72,1.85-.44,3.46-1.13,4.83-2.02,1.3-.89,2.54-2.12,3.67-3.66,1.13-1.57,2.02-3.52,2.74-5.88.72-2.36,1.1-5.1,1.1-8.17,0-3.59-.51-6.81-1.58-9.61-1.1-2.77-2.67-5.09-4.8-6.87-1.64-1.4-3.63-2.36-5.96-2.91-1.64-.38-4.05-.58-7.2-.58h-13.92v40.42Z"/>
  <path class="cls-1" d="M323.72,449.37h5.18v-34.41l11.72,34.41h4.83l11.76-33.82v33.82h5.18v-40.42h-7.23l-9.67,28.11c-.99,2.84-1.71,5.03-2.16,6.46-.41-1.3-1.06-3.28-1.95-5.95l-9.56-28.62h-8.09v40.42Z"/>
  <path class="cls-1" d="M382.61,449.37h5.48l15.87-40.42h-5.48l-10.94,29.34c-.82,2.22-1.54,4.41-2.19,6.63-.55-2.09-1.27-4.27-2.12-6.63l-10.52-29.34h-5.79l15.7,40.42Z"/>
  <path class="cls-1" d="M411.4,461.24h0c2.74-3.45,5.04-7.49,6.96-12.14,1.89-4.62,2.84-9.4,2.84-14.36,0-4.38-.72-8.59-2.12-12.59-1.68-4.65-4.22-9.27-7.68-13.89h-3.56c2.23,3.86,3.74,6.64,4.46,8.28,1.13,2.53,1.99,5.16,2.61,7.93.82,3.39,1.2,6.84,1.2,10.26,0,8.86-2.78,17.68-8.26,26.51h3.56Z"/>
  <path class="cls-1" d="M40.01,266.32l.45-5.12-34.09-2.86,35.04-8.73.4-4.77-32.53-14.46,33.48,2.81.45-5.12-40.06-3.31-.6,7.13,27.06,11.9c2.76,1.2,4.87,2.11,6.27,2.66-1.36.3-3.31.75-6.07,1.41l-29.22,7.18-.6,7.98,40.01,3.31Z"/>
  <path class="cls-1" d="M32.09,213.38h0c-3.56-1-6.02-2.51-7.43-4.62-1.3-2.01-1.71-4.22-1-6.63.65-2.36,2.06-4.07,4.27-5.17,2.26-1.1,5.12-1.1,8.53-.2,3.72,1.05,6.28,2.56,7.63,4.67,1.31,2.01,1.71,4.27,1.06,6.63-.65,2.41-2.11,4.12-4.32,5.17-2.26,1.1-5.12,1.1-8.73.15ZM30.86,218.16h0c4.72,1.3,8.74,1.1,11.85-.65,3.21-1.71,5.32-4.57,6.32-8.48.75-2.46.8-4.82.3-7.28-.6-2.36-1.76-4.42-3.56-6.02-1.76-1.71-4.42-2.96-8.13-3.97-4.42-1.25-8.23-1-11.49.8-3.16,1.71-5.32,4.52-6.32,8.38-1,3.46-.75,6.68.65,9.69,1.71,3.61,5.12,6.07,10.39,7.53Z"/>
  <path class="cls-1" d="M54.33,178.89h0c-.15.9-.4,1.56-.6,2.06-.25.65-.6,1.11-.95,1.41s-.8.5-1.26.5-1.3-.3-2.61-.75l-15.76-6.38,1.81-4.62-3.56-1.4-1.81,4.57-9.54-3.77,1,5.67,6.68,2.66-1.36,3.36,3.56,1.41,1.41-3.31,15.56,6.23c2.71,1.1,4.57,1.61,5.57,1.61,1-.05,1.96-.4,2.86-1.1.9-.75,1.66-1.91,2.31-3.57.4-1,.75-2.26,1.06-3.66l-4.37-.9Z"/>
  <path class="cls-1" d="M48.6,166.26h0c-3.31-1.71-5.42-3.76-6.22-6.07-.95-2.26-.75-4.52.35-6.73,1.15-2.16,2.96-3.46,5.37-4.07,2.41-.55,5.22,0,8.33,1.71,3.41,1.76,5.57,3.87,6.43,6.18.9,2.26.75,4.52-.4,6.68-1.1,2.21-2.96,3.56-5.37,4.12-2.41.55-5.22,0-8.48-1.81ZM46.08,170.63h0c4.32,2.36,8.28,2.96,11.75,1.96,3.46-.95,6.12-3.31,8.03-6.93,1.2-2.26,1.86-4.52,1.81-6.98-.05-2.41-.75-4.72-2.16-6.73-1.36-2.01-3.66-3.86-6.98-5.62-4.12-2.21-7.88-2.71-11.45-1.76-3.51,1.05-6.18,3.31-8.03,6.88-1.71,3.16-2.26,6.38-1.46,9.59.9,3.92,3.66,7.08,8.48,9.59Z"/>
  <path class="cls-1" d="M75.08,148.86l2.86-4.07-12.45-8.74c-1.71-1.2-3.16-2.46-4.27-3.97-.7-.95-1.1-2.01-1.15-3.06-.05-1.06.25-2.06.85-2.96.7-1,1.71-1.71,2.96-2.31l-2.76-4.07c-1.91.8-3.26,1.91-4.22,3.31-.65.95-.95,1.96-1.05,3.11,0,1.16.55,2.86,1.61,4.97l-3.66-2.56-2.56,3.66,23.84,16.67Z"/>
  <path class="cls-1" d="M78,129.22h0c2.71,1.61,5.27,2.11,7.73,1.71,2.46-.55,4.97-2.26,7.38-5.17,1.46-1.76,2.51-3.56,3.06-5.42.6-1.91.6-3.66.1-5.37-.45-1.71-1.36-3.06-2.61-4.12-1.25-1.05-2.61-1.66-4.02-1.86-1.36-.05-2.71.2-4.02.85-1.36.65-3.51,2.01-6.48,4.12-2.06,1.46-3.31,2.26-3.82,2.51-.75.45-1.56.65-2.21.65-.65-.05-1.2-.3-1.71-.7-.75-.65-1.15-1.61-1.1-2.81.15-1.2.85-2.71,2.31-4.47,1.26-1.45,2.56-2.31,3.87-2.56,1.36-.25,2.61,0,3.91.8l2.56-4.12c-1.61-1-3.11-1.51-4.47-1.66-1.45-.05-2.91.35-4.57,1.26-1.56.85-3.11,2.21-4.62,3.97-1,1.15-1.76,2.36-2.31,3.61s-.9,2.36-.95,3.31c-.05,1.25.05,2.51.55,3.61.45,1.2,1.15,2.26,2.16,3.11,1.1.85,2.31,1.41,3.72,1.61,1.36.25,2.76,0,4.17-.65,1.41-.6,3.61-2.01,6.68-4.17,2.26-1.61,3.76-2.56,4.52-2.76,1.11-.35,2.11-.15,2.91.6,1,.8,1.51,1.91,1.46,3.31-.05,1.46-.7,3.06-2.16,4.77s-3.01,2.71-4.62,2.96c-1.61.3-3.26-.05-4.87-1.1l-2.56,4.17Z"/>
  <path class="cls-1" d="M97.94,98.37h0c-2.51-2.71-3.82-5.47-4.02-7.98-.1-2.61.55-4.52,2.16-5.92,1.56-1.46,3.51-2.01,5.92-1.61,2.36.25,4.77,1.86,7.28,4.57,2.61,2.86,4.02,5.52,4.12,7.98.1,2.41-.7,4.42-2.26,5.82-1.66,1.45-3.61,2.06-5.92,1.71-2.36-.25-4.77-1.81-7.28-4.57ZM111.87,120.22l3.66-3.31-9.54-10.44c1.35.2,2.76.1,4.17-.2,1.4-.4,2.71-1.15,3.91-2.26,1.66-1.56,2.86-3.41,3.46-5.77.7-2.26.6-4.72-.25-7.13-.75-2.51-2.21-4.87-4.17-7.03-1.91-2.06-4.02-3.66-6.27-4.72-2.31-1-4.57-1.4-6.88-1.05-2.21.3-4.32,1.36-6.12,3.01-1.41,1.2-2.36,2.61-2.86,4.07s-.6,3.06-.35,4.87l-2.56-2.81-3.36,3.06,27.16,29.72Z"/>
  <path class="cls-1" d="M121.81,77.59h0c-2.06-3.06-3.11-5.82-2.81-8.28.25-2.41,1.36-4.32,3.41-5.77,2.01-1.41,4.17-1.81,6.58-1.26,2.41.5,4.67,2.36,6.73,5.27,2.21,3.11,3.21,5.92,2.91,8.38-.2,2.41-1.3,4.37-3.31,5.77-2.01,1.46-4.27,1.86-6.63,1.31-2.41-.55-4.67-2.36-6.88-5.42ZM117.63,80.55h0c2.86,4.02,6.07,6.32,9.59,6.98,3.51.7,6.98-.15,10.34-2.51,2.11-1.51,3.61-3.31,4.72-5.52,1.05-2.16,1.51-4.52,1.05-6.93-.3-2.41-1.51-5.12-3.71-8.18-2.71-3.81-5.82-5.97-9.39-6.68-3.56-.65-6.98.2-10.29,2.46-2.91,2.11-4.87,4.77-5.57,7.98-.95,3.81.1,7.98,3.26,12.4Z"/>
  <path class="cls-1" d="M153.35,73.83l4.37-2.41-7.48-13.35c-1.05-1.76-1.71-3.61-2.11-5.37-.25-1.2-.15-2.26.25-3.26.5-1,1.2-1.76,2.11-2.31,1.06-.55,2.31-.8,3.66-.75l-.7-4.87c-2.06-.1-3.82.25-5.22,1.1-.95.55-1.76,1.35-2.31,2.36-.5,1.05-.7,2.76-.75,5.12l-2.16-3.87-3.87,2.16,14.21,25.45Z"/>
  <path class="cls-1" d="M177.52,56.07h0c-.7.6-1.3.95-1.81,1.15-.7.3-1.26.45-1.66.4-.5,0-.9-.2-1.2-.45-.35-.35-.85-1.15-1.46-2.31l-7.38-15.41,4.42-2.11-1.61-3.51-4.47,2.16-4.52-9.19-3.11,4.87,3.16,6.43-3.26,1.61,1.66,3.46,3.31-1.51,7.28,15.06c1.26,2.66,2.31,4.27,3.06,4.92.75.7,1.76,1.05,2.86,1.15,1.16.05,2.51-.3,4.12-1.05.95-.5,2.01-1.2,3.16-2.06l-2.56-3.61Z"/>
  <polygon class="cls-1" points="170.24 26.62 174.81 24.67 172.5 19.39 167.98 21.35 170.24 26.62"/>
  <path class="cls-1" d="M182.77,71.03h0c1.31-.15,2.51-.45,3.77-1,2.56-1.15,3.97-2.76,4.32-4.87.3-1.66-.3-4.17-1.71-7.48l-12.2-28.16-4.57,1.96,12.2,28.06c1.05,2.46,1.51,4.12,1.36,4.92-.2.8-.75,1.46-1.71,1.81-.5.25-1.31.4-2.31.6l.85,4.17Z"/>
  <path class="cls-1" d="M213.66,47.46l4.17-1.36-9.09-27.76-4.67,1.56,4.82,14.86c.8,2.36,1.1,4.27,1,5.67-.1,1.46-.65,2.66-1.66,3.81-1,1.1-2.21,1.91-3.62,2.36-1.4.45-2.66.5-3.86.1-1.26-.35-2.16-1.2-2.86-2.31-.5-.8-1.11-2.36-1.91-4.82l-5.02-15.36-4.67,1.51,5.62,17.17c.6,2.01,1.2,3.41,1.71,4.32.7,1.3,1.56,2.26,2.56,2.96,1,.7,2.31,1.15,3.97,1.35,1.56.1,3.21-.1,4.82-.6,3.71-1.2,6.17-3.66,7.33-7.48l1.35,4.02Z"/>
  <path class="cls-1" d="M225.51,28.79h0c-.75-3.46-.45-6.23.65-8.28,1.15-2.06,2.81-3.31,4.92-3.71,2.21-.45,4.27.05,6.22,1.51,1.86,1.45,3.21,3.91,3.91,7.43.75,3.61.5,6.48-.6,8.48-1.2,2.01-2.86,3.26-5.12,3.66-2.21.5-4.27.05-6.12-1.36-1.76-1.46-3.11-4.02-3.86-7.73ZM225,46.6h0c.55,3.11,2.06,5.22,4.47,6.32,2.41,1.1,5.27,1.31,8.68.6,2.91-.6,5.27-1.56,6.98-3.06,1.71-1.56,2.86-3.26,3.36-5.32.5-2.01.35-5.32-.6-9.69l-5.02-24.7-4.47.95.7,3.46c-2.76-2.31-5.77-3.06-9.19-2.41-2.56.55-4.57,1.61-6.17,3.21-1.61,1.66-2.71,3.76-3.21,6.27-.55,2.46-.45,5.07.05,7.83.85,3.91,2.61,7.13,5.32,9.49,2.71,2.41,6.07,3.21,9.99,2.36,3.11-.6,5.52-2.41,7.13-5.32.7,3.16.95,5.17.9,6.28-.05,1.71-.6,3.11-1.71,4.22-1,1.11-2.66,2.01-4.92,2.41-2.06.45-3.77.3-5.17-.3-1-.5-1.81-1.46-2.26-2.86l-4.87.25Z"/>
  <path class="cls-1" d="M258.38,20.64h0c-.05-2.51.6-4.62,2.06-6.27,1.41-1.66,3.26-2.56,5.47-2.81,2.51-.2,4.72.6,6.38,2.36,1.1,1.15,1.91,2.91,2.31,5.32l-16.21,1.41ZM275.16,27.19h0c-.55,2.21-1.46,3.77-2.61,4.87-1.26,1-2.76,1.66-4.57,1.81-2.41.25-4.47-.5-6.27-2.01-1.71-1.56-2.86-3.91-3.31-7.13l21.69-1.86c-.05-.6-.1-1-.15-1.3-.4-4.82-1.91-8.38-4.67-10.79-2.61-2.46-5.87-3.51-9.79-3.16-4.02.35-7.18,1.96-9.44,4.82-2.31,2.96-3.21,6.88-2.86,11.75.45,4.72,2.01,8.28,4.77,10.69,2.66,2.41,6.12,3.36,10.39,2.91,3.36-.2,6.12-1.2,8.13-3.06,2.01-1.81,3.31-4.27,3.82-7.33l-5.12-.2Z"/>
  <path class="cls-1" d="M287.26,36.08l4.87.15.4-15.91c.1-3.71.9-6.22,2.56-7.53,1.56-1.31,3.31-1.91,5.42-1.86,1.31.05,2.51.4,3.46,1,.95.6,1.56,1.41,1.96,2.41.35,1,.5,2.51.45,4.52l-.45,17.72,4.97.1.45-17.87c.05-2.31,0-3.87-.2-4.82-.2-1.36-.7-2.61-1.36-3.66-.75-1.05-1.86-1.91-3.31-2.56-1.4-.65-3.01-1-4.77-1.1-4.02-.05-7.23,1.41-9.44,4.57l.15-4.12-4.37-.15-.8,29.12Z"/>
  <path class="cls-1" d="M323.74,23.5h0c.5-3.82,1.61-6.63,3.36-8.13,1.61-1.56,3.61-2.26,5.77-1.96,2.21.35,4.02,1.45,5.22,3.56,1.3,2.01,1.61,5.02,1.15,8.94-.5,3.61-1.56,6.23-3.36,7.73-1.71,1.56-3.66,2.21-5.82,1.96-2.06-.35-3.86-1.56-5.07-3.51-1.36-2.06-1.76-4.92-1.26-8.58ZM337.24,39.91l4.47.6,5.42-39.81-4.82-.7-1.96,14.26c-.7-1.26-1.71-2.36-2.91-3.31-1.26-.9-2.76-1.51-4.52-1.71-2.36-.3-4.57-.05-6.68,1-2.11,1-3.81,2.56-5.07,4.77-1.3,2.26-2.11,4.77-2.51,7.68-.4,2.91-.2,5.62.55,8.08.75,2.36,1.96,4.37,3.72,5.87,1.81,1.51,3.81,2.41,6.12,2.71,3.56.5,6.43-.5,8.63-3.11l-.45,3.66Z"/>
  <path class="cls-1" d="M396.93,41.81h0c-1.76,2.91-3.92,4.87-6.48,5.82-2.46,1-5.12.95-7.98,0-2.31-.8-4.17-2.16-5.77-4.02-1.66-1.91-2.46-4.17-2.56-6.88-.1-2.76.4-5.72,1.46-8.99.9-2.51,2.11-4.82,3.77-6.93,1.56-2.06,3.61-3.46,6.07-4.17,2.41-.75,5.07-.6,8.03.4,2.56.85,4.37,2.26,5.67,4.02,1.3,1.86,1.86,4.32,1.81,7.38l5.32.5c.15-3.81-.7-7.18-2.66-9.94-1.91-2.86-4.77-4.87-8.58-6.22-3.36-1.15-6.68-1.51-9.99-.85-3.36.5-6.27,2.01-8.78,4.47-2.56,2.41-4.47,5.62-5.87,9.59-1.26,3.61-1.71,7.28-1.46,10.89.25,3.61,1.41,6.73,3.41,9.24,1.96,2.61,5.07,4.52,9.14,5.92,3.97,1.41,7.68,1.41,11.19.25,3.46-1.26,6.43-3.77,8.94-7.53l-4.67-2.96Z"/>
  <path class="cls-1" d="M425.95,54.76l-.8,1.61c-.95,1.96-1.91,3.31-2.91,4.07-1.26,1.05-2.71,1.56-4.47,1.56-1.71.1-3.36-.3-5.07-1.1-1.76-.85-2.86-1.91-3.31-3.11-.55-1.26-.5-2.46.1-3.61.4-.8.95-1.4,1.71-1.86.7-.4,1.51-.6,2.46-.55.9.05,2.36.45,4.27,1.05,3.46,1.2,6.12,1.81,8.03,1.96ZM421.36,64.7h0c-.5,1.26-.7,2.46-.75,3.61l4.62,2.36c-.05-1.26.05-2.51.55-3.66.25-1.2,1.46-3.87,3.56-7.93l2.96-5.92c.95-1.96,1.61-3.31,1.86-4.12.3-1.36.35-2.61.05-3.72-.2-1.1-.9-2.36-2.06-3.51-1.15-1.2-2.81-2.36-5.02-3.51-2.26-1.1-4.37-1.81-6.38-2.11-2.01-.2-3.72.05-5.22.7-1.45.65-2.86,1.86-4.22,3.51l4.12,2.76c1.31-1.61,2.71-2.56,4.07-2.76,1.36-.25,3.06.2,5.17,1.2,2.21,1.1,3.66,2.46,4.22,4.07.5,1.1.3,2.61-.6,4.42-.05.2-.3.55-.65,1.15-1.96-.3-4.82-1.1-8.58-2.46-1.86-.65-3.31-1.11-4.27-1.31-1.36-.3-2.61-.3-3.91-.15-1.26.15-2.46.6-3.51,1.35-1.1.8-2.06,1.86-2.66,3.11-1.11,2.16-1.26,4.27-.4,6.43.85,2.21,2.66,3.97,5.57,5.42,1.76.9,3.51,1.41,5.32,1.61,1.76.2,3.81,0,6.18-.55Z"/>
  <path class="cls-1" d="M441.3,63.6h0c2.11-3.21,4.32-5.17,6.53-5.87,2.16-.7,4.22-.4,6.07.75,1.86,1.25,2.91,3.11,3.16,5.52s-.7,5.22-2.91,8.53c-1.96,3.06-4.12,4.92-6.32,5.52-2.21.7-4.27.45-6.12-.8-1.71-1.15-2.76-3.01-3.06-5.42-.25-2.36.6-5.17,2.66-8.23ZM446.24,84.37l3.87,2.51,22.19-33.58-4.17-2.66-7.93,12c-.05-1.45-.45-2.86-1.16-4.27-.75-1.36-1.91-2.51-3.36-3.51-1.96-1.31-4.12-1.96-6.43-2.01-2.36,0-4.52.75-6.68,2.16-2.11,1.46-3.97,3.36-5.57,5.82-1.66,2.51-2.66,4.97-3.01,7.53-.35,2.46-.1,4.82.85,6.93.9,2.11,2.36,3.76,4.27,5.07,3.06,2.01,6.07,2.36,9.19.9l-2.06,3.11Z"/>
  <path class="cls-1" d="M470.43,80.86h.05c1.76-1.86,3.72-2.86,5.92-2.91,2.11-.15,4.07.45,5.82,1.96,1.91,1.66,2.81,3.71,2.76,6.17-.1,1.61-.8,3.41-2.21,5.37l-12.35-10.59ZM477.54,97.49h0c-1.96,1.16-3.66,1.66-5.27,1.56-1.61-.2-3.11-.8-4.42-2.01-1.91-1.61-2.86-3.61-2.96-5.92-.1-2.36.75-4.77,2.76-7.28l16.46,14.21c.35-.45.6-.8.85-1,3.11-3.71,4.62-7.28,4.47-10.89-.1-3.61-1.61-6.73-4.62-9.24-3.06-2.66-6.38-3.76-10.04-3.41-3.71.4-7.18,2.46-10.34,6.18-3.11,3.61-4.57,7.18-4.37,10.79.15,3.62,1.86,6.83,5.12,9.59,2.56,2.26,5.12,3.46,7.88,3.66,2.71.15,5.32-.6,7.93-2.36l-3.46-3.86Z"/>
  <path class="cls-1" d="M479.71,112.35l3.26,3.71,11.9-10.59c2.76-2.51,5.17-3.56,7.23-3.36,2.01.25,3.67,1.2,5.07,2.76.85,1,1.45,2.06,1.66,3.16.15,1.1,0,2.11-.4,3.11-.5.95-1.51,2.11-3.06,3.41l-13.2,11.8,3.36,3.66,13.35-11.9c1.66-1.56,2.81-2.61,3.36-3.41.85-1.16,1.4-2.31,1.71-3.56.25-1.26.2-2.61-.35-4.12-.5-1.51-1.36-2.91-2.51-4.27-2.71-2.96-5.97-4.27-9.79-3.67l3.11-2.86-2.96-3.26-21.74,19.38Z"/>
  <path class="cls-1" d="M514.85,131.66h0c2.96-1.96,5.67-2.81,8.13-2.51,2.41.2,4.22,1.2,5.42,3.01,1.25,1.81,1.41,3.81.8,6.07-.65,2.31-2.61,4.42-5.72,6.58-3.06,2.06-5.87,2.96-8.28,2.71-2.46-.25-4.27-1.25-5.47-3.11-1.51-2.21-1.61-4.62-.35-7.33.75-1.71,2.61-3.46,5.47-5.42ZM502.69,139.8l3.01-2.01c-1.3,3.26-.95,6.27,1,9.09,1.91,2.91,4.62,4.67,8.28,5.17,3.66.55,7.53-.6,11.6-3.36,1.81-1.2,3.36-2.56,4.47-4.02,1.26-1.56,2.11-3.01,2.61-4.62.5-1.61.6-3.26.4-5.02-.35-1.71-1-3.31-2.06-4.82-1.76-2.71-4.32-4.17-7.68-4.52l11.95-7.98-2.76-4.07-33.38,22.39,2.56,3.77Z"/>
  <path class="cls-1" d="M534.34,157.98h-.05c2.36-1,4.57-1.05,6.58-.3,2.06.65,3.61,2.06,4.62,4.07,1.05,2.31,1.15,4.57.1,6.78-.7,1.51-2.06,2.86-4.12,4.12l-7.13-14.66ZM534.2,176.11h0c-2.21.25-4.02.05-5.42-.65-1.4-.75-2.51-2.01-3.31-3.61-1.1-2.21-1.15-4.42-.35-6.58.85-2.26,2.61-4.07,5.42-5.62l9.49,19.48c.6-.2.95-.4,1.2-.55,4.32-2.11,7.13-4.82,8.48-8.18,1.25-3.41,1.1-6.83-.65-10.39-1.76-3.61-4.42-5.92-7.93-7.03-3.56-1.1-7.53-.55-11.95,1.61-4.22,2.06-6.98,4.82-8.23,8.18-1.3,3.41-1,6.98.95,10.84,1.4,3.01,3.36,5.17,5.82,6.43,2.41,1.26,5.12,1.56,8.18.95l-1.71-4.87Z"/>
  <path class="cls-1" d="M530.13,190.56l1.56,4.67,14.46-4.87c1.96-.7,3.91-1,5.72-1.06,1.2-.05,2.26.25,3.16.85.9.65,1.51,1.46,1.86,2.41.35,1.21.4,2.46.1,3.82l4.92.2c.45-2.01.4-3.77-.1-5.37-.4-1.05-1.05-1.96-1.96-2.71-.95-.65-2.61-1.2-4.92-1.61l4.22-1.46-1.46-4.22-27.56,9.34Z"/>
  <path class="cls-1" d="M551.61,208.28h0c3.41-.8,6.17-.55,8.28.5,2.11,1.15,3.36,2.76,3.82,4.87.5,2.16.05,4.27-1.41,6.22-1.4,1.91-3.81,3.31-7.28,4.07-3.66.85-6.53.65-8.53-.45-2.01-1.15-3.31-2.81-3.76-5.02-.55-2.21-.15-4.27,1.25-6.17,1.41-1.76,3.97-3.21,7.63-4.02ZM533.64,208.03h0c-3.11.65-5.17,2.16-6.18,4.62-1.1,2.41-1.25,5.27-.45,8.68.65,2.86,1.71,5.22,3.21,6.88,1.56,1.71,3.31,2.81,5.37,3.36,2.01.4,5.27.15,9.69-.85l24.6-5.52-1.05-4.42-3.46.75c2.26-2.81,2.96-5.87,2.21-9.24-.6-2.56-1.66-4.57-3.31-6.12-1.71-1.61-3.82-2.61-6.32-3.11s-5.07-.35-7.83.25c-3.91.9-7.08,2.71-9.44,5.52-2.31,2.71-3.01,6.07-2.11,9.99.65,3.11,2.51,5.47,5.47,7.03-3.16.8-5.17,1.05-6.28,1.05-1.71-.05-3.11-.6-4.27-1.66-1.1-1-2.01-2.61-2.56-4.82-.4-2.06-.3-3.82.25-5.22.5-1,1.46-1.81,2.81-2.31l-.35-4.87Z"/>
  <path class="cls-1" d="M560.07,241.58h-.05c2.56-.05,4.67.65,6.23,2.16,1.66,1.41,2.56,3.26,2.71,5.52.2,2.51-.65,4.67-2.41,6.27-1.2,1.1-2.96,1.91-5.37,2.26l-1.1-16.22ZM553.2,258.32h0c-2.16-.6-3.72-1.51-4.77-2.71-1-1.26-1.66-2.76-1.76-4.57-.15-2.41.6-4.47,2.11-6.27,1.61-1.66,3.97-2.81,7.18-3.11l1.51,21.64c.6-.05,1-.05,1.31-.1,4.82-.35,8.38-1.76,10.89-4.47,2.51-2.66,3.56-5.87,3.31-9.74-.25-4.07-1.86-7.23-4.72-9.59-2.91-2.36-6.78-3.31-11.7-2.96-4.72.3-8.28,1.81-10.64,4.52-2.51,2.61-3.56,6.07-3.21,10.34.2,3.36,1.16,6.12,2.96,8.18s4.22,3.41,7.28,3.97l.25-5.12Z"/>
</svg>