<?xml version="1.0" encoding="UTF-8"?>
<svg id="Layer_1" xmlns="http://www.w3.org/2000/svg" viewBox="0 0 444.02 657.5">
  <defs>
    <style>
      .cls-1 {
        fill: #060406;
        fill-rule: evenodd;
      }
    </style>
  </defs>
  <path class="cls-1" d="M317.86,525.78l-.07-75.89s22.49,13,27.67,13c-4.4-9.77-13.01-24.99-14.66-36.66,5.81.45,14.44,6.43,18.18,4.99-.59-4.47-15.22-22.94-17.6-34.61,6.74-2.05,10.81.07,10.81.07,1.5-.36-15.51-28.31-15.51-37.31,3.81-.59,6.74-.88,9.97,0l-14.37-31.09,9.47.07-13.57-32.62-1.47-25.51-4.19.24-.8,24.39-16.13,33.43h8.5l-11.02,30.23,8.28.43-14.57,37.08h14.08c-1.04,2.12-13.77,30.6-18.23,31.32-4.54.65,14.72-3.39,17.94-4.34,1.18.37-10.38,30.19-15.56,36.38-5.26,6.12,20.56-9.47,21.13-9.7l-.16,75.26-13.81.13-8.78-43.12-12.96-73.8-1.3-7.78-3.31-24.26-.32-12.4,1-167.74,7.2-6.32.17-32.1h13.04l-1.65-7.15-1.66-.72-48.89-27.72-.79-17.71c.43-.07.94-.22,1.51-.36,15.91-3.82,24.41,10.94,32.76,10.01,8.57-.72.22-7.13.22-7.13l-38.88-23.26-7.63,38.88-22.32,14.04-23.98,16.13-.72,4.97h9.29v29.95l5.69,6.34-2.38,170.71-1.22,7.56-13.75,56.02-12.82,55.08-9.72,39.88h-8.08s-.97-76.24-.97-76.24c.57.22,26.39,15.82,21.14,9.7-5.18-6.19-16.74-36.01-15.56-36.38,3.22.96,22.47,4.99,17.94,4.34-4.46-.72-17.2-29.2-18.23-31.32h14.08l-14.56-37.08,8.28-.43-11.02-30.23h8.51l-16.13-33.43-.8-24.39-4.19-.24-1.47,25.51-13.57,32.62,9.46-.07-14.37,31.09c3.23-.88,6.16-.59,9.97,0,0,9-17.01,36.95-15.51,37.31,0,0,4.07-2.12,10.81-.07-2.38,11.66-17.01,30.14-17.6,34.6,3.74,1.44,12.37-4.54,18.18-4.99-1.66,11.66-10.26,26.89-14.66,36.66,5.18,0,27.67-13,27.67-13l-.07,75.89-14.29.24c-34.59-52.96-52.6-118.16-52.6-194.43s18.14-143.93,54.36-197.57c30.96-45.86,66.1-68.83,105.26-68.83s74.38,22.97,105.34,68.83c36.22,53.64,54.36,119.52,54.36,197.57s-18,143.35-53.86,196.85l-9.96.2ZM282.64,525.12h-15.66v-9.9l11.17-12.3,4.48,22.2ZM225.95,524.21l-28.76-.11-.03-21.56,28.88.1-.09,21.57ZM182.25,523.61l-21.56-.41,6.43-25.72,1.03,3.5,14.11,22.63ZM121.33,532.88c-1.04-.38,38.38.7,80.5,1.42l.65,5.54-56.02,22.32c-8.6-8.18-17.08-18.09-25.13-29.28ZM171.2,580.99c-5.62-3.31-11.09-7.13-16.49-11.59l61.78-23.4-.72,16.13-44.57,18.86ZM252.45,590.24c-11.59-6.48-30.53-19.58-30.53-19.58l-38.09,16.7c12.24,5.18,24.98,7.78,38.16,7.78,10.44,0,20.59-1.66,30.46-4.9ZM282.56,574.63c-3.96,2.88-7.92,5.4-11.95,7.63l-40.1-20.59,2.59-14.76s36.43,20.81,49.46,27.72ZM320.54,535.58c-8.35,11.23-16.88,21.1-25.81,29.17l-52.63-24.48-.79-5.33c37.66.58,71.6.78,79.23.64ZM222.01,0c122.61,0,222.01,147.19,222.01,328.75s-99.4,328.75-222.01,328.75S0,510.32,0,328.75,99.4,0,222.01,0ZM58.5,237.84l1.15-4.39-29.38-7.7,31.97-2.23,1.08-4.18-26.21-17.57,28.87,7.56,1.15-4.39-34.49-9.07-1.58,6.12,21.82,14.62c2.16,1.44,3.89,2.52,5.04,3.24-1.22.07-3.02.14-5.54.36l-26.57,1.73-1.8,6.84,34.49,9.07ZM55.34,186.65h0c-5.04-2.02-8.14-4.61-9.36-7.7s-1.22-6.12,0-9.29c.94-2.16,2.23-3.89,4.03-5.26,1.8-1.3,3.89-1.94,6.26-2.09s4.97.43,7.63,1.51c4.25,1.66,7.13,4.03,8.57,7.13,1.51,3.02,1.51,6.19.22,9.5-1.3,3.24-3.53,5.47-6.7,6.7-3.1,1.22-6.7,1.08-10.66-.5ZM53.44,191.06h0c2.88,1.22,5.9,1.66,9,1.44s5.9-1.22,8.42-3.1c2.45-1.87,4.32-4.32,5.54-7.49,1.15-2.81,1.58-5.76,1.22-8.86-.36-2.95-1.58-5.69-3.74-8.14-2.02-2.45-4.75-4.32-8.14-5.62-3.31-1.37-6.55-1.87-9.72-1.66-3.1.22-5.83,1.3-8.28,3.17-2.52,1.87-4.32,4.32-5.54,7.34-1.87,4.68-1.8,9.14.07,13.32,1.94,4.18,5.62,7.42,11.16,9.58ZM90.03,151.24l2.23-4.18-27.58-14.98,5.62-10.37-3.74-2.02-13.46,24.84,3.74,2.02,5.54-10.3,27.65,14.98ZM88.56,119.27h0c-4.39-3.1-6.77-6.34-7.27-9.58-.5-3.31.22-6.34,2.16-9.07,1.37-1.87,3.02-3.31,5.11-4.18,2.02-.86,4.25-1.01,6.62-.58,2.3.43,4.68,1.51,7.06,3.17,3.74,2.66,5.98,5.62,6.7,8.93s0,6.48-2.02,9.36c-2.02,2.81-4.68,4.46-8.06,4.9-3.31.5-6.77-.5-10.3-2.95ZM85.72,123.19h0c2.52,1.8,5.33,2.95,8.42,3.46s6.05.14,8.93-1.08c2.81-1.22,5.18-3.24,7.13-5.98,1.8-2.52,2.88-5.26,3.17-8.35.36-2.95-.22-5.9-1.66-8.78-1.51-2.81-3.67-5.26-6.7-7.34-2.88-2.09-5.9-3.38-9-3.82-3.1-.5-6.05-.14-8.86,1.15-2.81,1.22-5.18,3.17-7.06,5.83-2.95,4.18-3.89,8.42-3.02,12.96.94,4.54,3.82,8.5,8.64,11.95ZM114.5,81.17l-8.21-8.5,8.06-7.85c1.94-1.8,3.67-2.81,5.33-2.88,1.58-.07,3.02.5,4.18,1.73.79.86,1.37,1.8,1.58,2.95s.07,2.3-.5,3.46-1.58,2.52-3.17,4.03l-7.27,7.06ZM124.98,98.74l3.38-3.31-11.02-11.3,3.96-3.82c.86-.86,1.51-1.44,1.94-1.73.65-.36,1.44-.65,2.23-.86.79-.14,1.94-.14,3.38.07s3.38.58,5.83,1.15l8.57,2.02,4.25-4.1-11.16-2.66c-2.23-.5-4.25-.72-6.12-.65-.94.07-2.02.29-3.31.72,2.16-2.74,3.17-5.26,3.17-7.63-.07-2.45-1.01-4.54-2.74-6.34-1.37-1.44-2.95-2.3-4.82-2.81-1.8-.5-3.53-.36-5.18.29-1.66.72-3.6,2.16-5.83,4.39l-11.38,11.02,24.84,25.56ZM146.42,63.33h0c1.3,2.02,2.95,3.53,4.97,4.46,2.02,1.01,4.18,1.37,6.55,1.08,2.3-.36,4.9-1.3,7.7-2.95,2.16-1.3,3.89-2.88,5.18-4.68s1.94-3.74,2.02-5.76c.14-1.94-.36-3.74-1.3-5.4-1.01-1.66-2.23-2.88-3.89-3.6-1.58-.79-3.53-1.08-5.76-.79-1.58.14-4.25.86-7.99,2.02-3.74,1.22-6.19,1.73-7.42,1.44-1.15-.22-2.16-.86-2.81-2.02-.72-1.3-.79-2.66-.22-4.25s2.16-3.1,4.61-4.54c2.3-1.37,4.39-1.94,6.19-1.66s3.38,1.37,4.75,3.1l3.67-2.52c-1.08-1.8-2.52-3.1-4.32-3.96s-3.82-1.22-5.9-.94c-2.23.36-4.46,1.15-6.7,2.52-2.09,1.22-3.74,2.66-5.04,4.39-1.3,1.66-1.94,3.46-2.02,5.33s.36,3.53,1.22,5.11c.86,1.44,1.94,2.52,3.38,3.17,1.37.72,3.02,1.01,4.9.94,1.51-.07,3.89-.58,7.06-1.58,3.24-1.01,5.4-1.58,6.41-1.73,1.58-.29,2.81-.22,3.82.14,1.01.43,1.73,1.08,2.3,2.09.58.94.79,1.94.72,3.1s-.65,2.3-1.51,3.46c-.94,1.22-2.16,2.23-3.74,3.1-1.73,1.08-3.46,1.66-5.26,1.87-1.73.29-3.24.07-4.46-.5-1.3-.65-2.45-1.66-3.53-3.02l-3.6,2.59ZM187.61,35.49l-2.52-12.46,8.93-1.87c2.09-.43,3.53-.58,4.39-.58,1.3.14,2.38.58,3.31,1.51,1.01.86,1.58,2.09,1.87,3.53.43,2.02.14,3.67-.86,5.04-1.08,1.37-3.1,2.38-6.05,2.95l-9.07,1.87ZM186.76,54.74l4.61-.94-2.88-14.18,8.93-1.87c4.97-1.01,8.21-2.66,9.65-5.11s1.87-5.18,1.3-8.14c-.36-1.73-1.08-3.24-2.02-4.54-1.01-1.3-2.16-2.23-3.53-2.88-1.3-.5-2.88-.79-4.61-.72-1.3.07-3.1.29-5.4.79l-13.18,2.66,7.13,34.92ZM230.24,32.22h0c.86-5.26,2.74-8.86,5.47-10.73,2.74-1.94,5.76-2.59,9.07-2.02,2.3.36,4.32,1.22,5.98,2.74,1.66,1.44,2.81,3.38,3.46,5.69.58,2.23.65,4.82.22,7.7-.72,4.54-2.45,7.85-5.11,9.94-2.66,2.16-5.76,2.88-9.22,2.3s-6.12-2.23-7.99-5.04-2.52-6.34-1.87-10.58ZM225.5,31.36h0c-.5,3.1-.29,6.12.58,9.14.94,2.95,2.52,5.47,4.9,7.49s5.18,3.31,8.5,3.82c3.02.5,6.05.22,8.93-.79,2.81-1.01,5.26-2.81,7.13-5.4,1.87-2.52,3.1-5.62,3.67-9.22.58-3.53.43-6.77-.5-9.79-.94-2.95-2.52-5.47-4.9-7.42-2.38-2.02-5.18-3.24-8.42-3.74-4.97-.86-9.29.22-12.96,2.95-3.67,2.81-5.98,7.13-6.91,12.96ZM281.05,43.61l6.05-10.08,9.65,5.76c2.3,1.37,3.67,2.81,4.18,4.39s.29,3.1-.58,4.54c-.58.94-1.37,1.73-2.45,2.23-1.01.5-2.23.65-3.46.36-1.3-.22-2.88-.86-4.75-2.02l-8.64-5.18ZM266.76,58.28l4.03,2.38,8.14-13.54,4.68,2.81c1.08.65,1.8,1.15,2.16,1.51.58.5,1.01,1.15,1.44,1.94.36.72.58,1.8.79,3.24.14,1.44.29,3.38.36,5.98l.29,8.78,5.04,3.02-.29-11.52c-.07-2.23-.43-4.25-.94-6.05-.29-.86-.79-1.87-1.51-3.02,3.17,1.37,5.9,1.73,8.21,1.08,2.23-.65,4.03-2.09,5.33-4.18,1.08-1.73,1.51-3.46,1.51-5.4s-.58-3.53-1.66-4.97c-1.08-1.37-2.95-2.88-5.69-4.54l-13.54-8.14-18.36,30.6ZM305.02,85.18l3.46,3.24,21.67-22.68,8.5,8.14,2.95-3.1-20.45-19.51-2.88,3.02,8.5,8.14-21.74,22.75ZM325.71,90.98l8.64,10.3,3.38-2.81-8.64-10.3-3.38,2.81ZM355.01,127.56h0c-2.88,1.08-5.47,1.3-7.78.65-2.23-.65-4.1-2.09-5.62-4.32-1.22-1.8-1.87-3.82-1.94-5.98-.14-2.16.5-4.25,1.94-6.19,1.37-2.02,3.31-3.82,5.83-5.54,1.94-1.3,4.1-2.3,6.34-2.88s4.39-.5,6.55.29c2.09.79,3.89,2.3,5.4,4.61,1.37,2.02,1.94,3.96,1.87,5.98-.14,1.94-1.01,3.96-2.74,6.12l3.53,3.24c2.16-2.59,3.38-5.47,3.53-8.5s-.72-6.05-2.74-9c-1.73-2.59-3.96-4.61-6.62-5.98s-5.54-1.87-8.57-1.51c-3.1.36-6.19,1.51-9.29,3.6-2.81,1.87-5.11,4.18-6.84,6.91-1.8,2.66-2.66,5.47-2.59,8.35,0,2.81,1.08,5.9,3.24,9.07,2.09,3.1,4.61,5.11,7.78,6.12,3.1,1.01,6.55.86,10.3-.5l-1.58-4.54ZM350.58,144.58l10.22,19.8,3.74-1.94-8.06-15.55,27.94-14.47-2.16-4.18-31.68,16.34ZM405.57,179.35l-19.22,7.56c-4.1,1.66-7.2,2.09-9.22,1.3-2.02-.86-3.67-2.81-4.9-6.05-.79-1.87-1.01-3.67-.79-5.26s.86-2.95,2.09-3.96c1.15-1.15,3.17-2.23,6.05-3.31l19.15-7.56-1.73-4.39-19.22,7.56c-3.46,1.37-6.05,2.88-7.78,4.46-1.73,1.66-2.74,3.74-2.95,6.12-.29,2.38.14,5.11,1.37,8.28,1.3,3.17,2.88,5.54,4.9,6.98,2.02,1.51,4.1,2.23,6.34,2.23,2.3-.07,5.11-.72,8.42-2.02l19.15-7.56-1.66-4.39ZM398.04,204.58l10.37-2.81,1.87,6.84c.72,2.45,1.01,4.25,1.01,5.33-.07,1.15-.43,2.09-1.15,2.88-.72.72-1.66,1.3-2.81,1.58-1.22.36-2.3.36-3.24,0-1.01-.36-1.8-1.08-2.45-2.16-.5-.79-1.01-2.23-1.58-4.25l-2.02-7.42ZM382.17,208.89l11.81-3.24,2.16,7.99c.65,2.16.86,3.89.86,5.18-.14,1.22-.58,2.38-1.3,3.24-.79.94-1.8,1.58-3.1,1.87-1.08.36-2.09.36-3.02.14-1.01-.22-1.8-.65-2.45-1.22s-1.15-1.37-1.66-2.38c-.29-.5-.58-1.58-1.01-3.02l-2.3-8.57ZM376.88,205.45l3.6,13.1c.58,2.16,1.22,3.96,2.09,5.4.79,1.37,1.66,2.52,2.66,3.31s2.3,1.37,3.96,1.66c1.51.29,3.1.22,4.75-.22,1.94-.58,3.53-1.58,4.75-3.1,1.15-1.51,1.73-3.38,1.8-5.69,1.22,1.44,2.59,2.38,4.1,2.81s3.02.43,4.46.07c1.58-.43,3.02-1.3,4.25-2.59,1.15-1.3,1.87-2.88,2.16-4.61.22-1.8,0-3.96-.72-6.62l-3.46-12.89-34.42,9.36ZM54.02,510.47l10.37,19.73,3.67-1.94-8.14-15.55,27.86-14.62-2.23-4.18-31.54,16.56ZM85.27,536.45l10.87-2.52c2.38-.58,4.61-1.3,6.77-2.16-1.3,1.51-2.88,3.6-4.75,6.19l-6.19,8.57-6.7-10.08ZM67.43,535.91l2.74,4.18,11.16-2.66,8.21,12.46-6.62,9.36,2.95,4.54,21.6-31.9-2.81-4.18-37.22,8.21ZM92.36,572.13l3.02,3.31,20.81-18.65-8.35,32.62,3.24,3.6,26.57-23.76-3.02-3.38-20.88,18.72,8.35-32.62-3.17-3.6-26.57,23.76ZM131.17,605.02l15.48-22.39,6.19,4.32c2.3,1.58,3.89,2.88,4.61,4.03,1.08,1.58,1.51,3.53,1.37,5.83-.07,2.38-1.22,5.11-3.31,8.14-1.58,2.23-3.17,3.89-4.75,5.11s-3.17,1.94-4.68,2.23c-1.15.14-2.3.07-3.67-.29-1.37-.43-3.02-1.3-4.97-2.66l-6.26-4.32ZM124.9,605.75l10.58,7.34c1.8,1.22,3.46,2.16,5.04,2.81,1.58.58,3.1.94,4.54.94s2.88-.29,4.46-.86c1.58-.5,3.31-1.44,4.97-2.81,1.73-1.37,3.38-3.17,4.9-5.4,1.8-2.59,3.02-5.18,3.74-7.78.58-2.59.58-4.97-.07-7.42-.5-1.8-1.44-3.46-2.81-5.04-1.01-1.15-2.66-2.45-4.97-4.03l-10.08-7.06-20.3,29.3ZM188.51,638.27l4.68.65,2.3-16.56,18.36,2.52-2.3,16.56,4.61.65,4.82-35.28-4.54-.65-2.02,14.54-18.36-2.59,2.02-14.47-4.68-.65-4.9,35.28ZM243.64,625.29l1.51-11.09c.36-2.38.43-4.75.43-7.06,1.01,1.73,2.3,3.96,4.03,6.7l5.83,8.86-11.81,2.59ZM236.74,641.76l4.9-1.08,1.51-11.3,14.54-3.24,6.41,9.58,5.26-1.15-22.03-31.61-4.9,1.08-5.69,37.73ZM289.08,620.6l-14.33-23.11,6.41-3.96c2.38-1.51,4.18-2.38,5.54-2.59,1.8-.36,3.82-.07,5.9,1.01s4.18,3.17,6.12,6.34c1.44,2.3,2.3,4.39,2.81,6.34s.5,3.67.14,5.26c-.29,1.08-.79,2.09-1.73,3.17-.86,1.15-2.38,2.3-4.39,3.53l-6.48,4.03ZM287.3,626.64l10.94-6.84c1.8-1.08,3.38-2.23,4.61-3.46,1.15-1.22,2.09-2.45,2.59-3.82.58-1.3.94-2.74,1.08-4.46.14-1.66-.07-3.53-.65-5.69-.58-2.02-1.58-4.32-3.02-6.55-1.66-2.74-3.53-4.9-5.62-6.55-2.16-1.58-4.39-2.52-6.84-2.88-1.87-.29-3.74-.07-5.76.58-1.44.5-3.31,1.44-5.69,2.95l-10.44,6.48,18.79,30.24ZM326.01,599.58l18.58-19.01-2.95-2.95-15.34,15.62-8.64-8.42,13.75-14.11-2.95-2.95-13.82,14.11-7.78-7.63,14.69-15.05-3.02-2.95-18,18.43,25.49,24.91ZM352.85,570.34l13.1-18-3.38-2.45-10.3,14.18-25.42-18.5-2.81,3.82,28.8,20.95ZM371.84,543.45l2.23-3.89-24.26-13.97,33.62-2.3,2.38-4.18-30.89-17.71-2.23,3.89,24.26,13.97-33.62,2.3-2.38,4.18,30.89,17.71ZM233.63,153.75h30.24v17.21h-30.24v-17.21ZM232.36,192.9l-.13,40.32-25-31.75-.06-8.65,25.19.08h0ZM230.49,262.45l.65,36.07-27.94.29-2.16-5.69,23.76-30.67h5.69ZM219.83,352.07l-.29,8.42h-23.47l-.22-34.2,7.78.94,16.2,24.84ZM231.12,348.45l-7.49-.29-18.07-26.57,1.44-12.17h23.04l1.08,39.02ZM179.38,429.44h0l6.26-24.19,3.24-.36-.86,24.98-8.64-.43ZM228.85,399.66l-.07,20.88-8.78-.22-1.01-19.15-.14-22.39,10.66.22-.65,20.66ZM187.31,438.14v45.5l-11.23-.22-5.47-.07-.65-12.53,7.28-33.09,10.07.4ZM198.92,437.64l15.93.1,3.79,7.27-18.07,27.55-1.44-.5-.22-34.42ZM205.39,484.76l-.65-10.35,18.65-26.87,5.18.29-.72,36.72-22.46.22ZM259.43,429.85v-18.58l7.13,2.59v15.91l-7.13.07ZM174.02,499.47l1.95-8.94,11.38.32,1.58,20.23-6.13-.09-8.78-11.52ZM268.85,440.92l6.7,32.76-.43,10.15-16.34.22,2.38-45.58,7.7,2.45ZM259.74,492.1l15.49-.63.32,5.37-15.17,16.44-.63-21.18ZM196.12,153.68h30.24v17.21h-30.24v-17.21Z"/>
</svg>